<svg id="Layer_1" data-name="Layer 1" xmlns="http://www.w3.org/2000/svg" xmlns:xlink="http://www.w3.org/1999/xlink" viewBox="0 0 426.71 400"><defs><style>.cls-1{fill:url(#linear-gradient);}.cls-2{fill:url(#linear-gradient-2);}.cls-3{fill:url(#linear-gradient-3);}.cls-4{fill:url(#linear-gradient-4);}.cls-5{fill:url(#linear-gradient-5);}.cls-6{fill:url(#linear-gradient-6);}.cls-7{fill:url(#linear-gradient-7);}.cls-8{fill:url(#linear-gradient-8);}.cls-9{fill:url(#linear-gradient-9);}.cls-10{fill:url(#linear-gradient-10);}.cls-11{fill:url(#linear-gradient-11);}.cls-12{fill:url(#linear-gradient-12);}.cls-13{fill:url(#linear-gradient-13);}.cls-14{fill:url(#linear-gradient-14);}</style><linearGradient id="linear-gradient" x1="43.34" y1="219.03" x2="318.71" y2="219.03" gradientUnits="userSpaceOnUse"><stop offset="0" stop-color="#fe0068"/><stop offset="1" stop-color="#9d04c7"/></linearGradient><linearGradient id="linear-gradient-2" x1="104.88" y1="167.19" x2="426.71" y2="167.19" xlink:href="#linear-gradient"/><linearGradient id="linear-gradient-3" x1="0" y1="183.3" x2="196.77" y2="183.3" xlink:href="#linear-gradient"/><linearGradient id="linear-gradient-4" x1="83.13" y1="286.83" x2="278.71" y2="286.83" xlink:href="#linear-gradient"/><linearGradient id="linear-gradient-5" x1="83.13" y1="356.85" x2="278.78" y2="356.85" xlink:href="#linear-gradient"/><linearGradient id="linear-gradient-6" x1="83.13" y1="321.83" x2="278.86" y2="321.83" xlink:href="#linear-gradient"/><linearGradient id="linear-gradient-7" x1="83.1" y1="251.82" x2="156.86" y2="251.82" xlink:href="#linear-gradient"/><linearGradient id="linear-gradient-8" x1="241.44" y1="165.81" x2="332.55" y2="165.81" xlink:href="#linear-gradient"/><linearGradient id="linear-gradient-9" x1="191.35" y1="137.46" x2="283.2" y2="137.46" xlink:href="#linear-gradient"/><linearGradient id="linear-gradient-10" x1="195.72" y1="68.62" x2="320.64" y2="68.62" xlink:href="#linear-gradient"/><linearGradient id="linear-gradient-11" x1="143.22" y1="191.37" x2="233.16" y2="191.37" xlink:href="#linear-gradient"/><linearGradient id="linear-gradient-12" x1="143.27" y1="95.63" x2="178.61" y2="95.63" xlink:href="#linear-gradient"/><linearGradient id="linear-gradient-13" x1="181.18" y1="75.5" x2="210.32" y2="75.5" xlink:href="#linear-gradient"/><linearGradient id="linear-gradient-14" x1="142" y1="137.53" x2="182.79" y2="137.53" xlink:href="#linear-gradient"/></defs><path class="cls-1" d="M43.55,400H318a24.69,24.69,0,0,0,.65-4.29q.06-52.84,0-105.69a5.27,5.27,0,0,0-1.43-3.3c-4.44-4.62-9-9.09-13.55-13.62-.75-.76-1.46-1.55-2.6-2.75-.09,1.23-.17,1.84-.17,2.44v110.6c0,.71,0,1.43,0,2.13.13,1.33-.52,1.81-1.75,1.75-.64,0-1.28,0-1.92,0h-199c-11.61,0-23.21,0-34.81,0-1.66,0-2.33-.31-2.33-2.22q.08-106.53,0-213.08,0-56.91,0-113.81c0-1.9.47-2.54,2.52-2.53q27.54.14,55.09,0a4.25,4.25,0,0,0,2.88-1.31c4-4.7,7.86-9.52,11.75-14.32.39-.49.68-1.06,1.09-1.7a4.9,4.9,0,0,0-.94-.27q-40.68,0-81.35.08a9.63,9.63,0,0,0-4.25,1.11c-3.74,2-4.59,5.38-4.58,9.35q0,167.28,0,334.57C43.37,388.72,43.48,394.28,43.55,400Z"/><path class="cls-2" d="M305.53,250.78,299,254.4a125.85,125.85,0,0,1-35.05,12.73,134,134,0,0,1-43.69,1.64,132.35,132.35,0,0,1-39.35-11.28A133.08,133.08,0,0,1,120,199.69a133.72,133.72,0,0,1-11.76-31.37c-3.57-14.63-4-29.42-2.8-44.28a119.6,119.6,0,0,1,6.68-30.1,131.15,131.15,0,0,1,20.4-37.36A134.21,134.21,0,0,1,167.1,25.25a114.84,114.84,0,0,1,23.15-11.5,214.43,214.43,0,0,1,21.48-6A112.22,112.22,0,0,1,240.1,5.13a136.53,136.53,0,0,1,32.2,4.54A130.64,130.64,0,0,1,346.57,62.3a129.41,129.41,0,0,1,23,69.14c.32,8.92.16,17.8-1.49,26.53a205.71,205.71,0,0,1-5.9,23.29A109.8,109.8,0,0,1,350,206.71c-.71,1.13-.67,1.67.67,2.45,3.1,1.8,6.41,3.52,8.94,6,13.23,12.92,26.23,26.09,39.34,39.13q8.85,8.8,17.82,17.48a39.27,39.27,0,0,1,9.51,14.7,6.11,6.11,0,0,1,.23,2.1c0,3.84-.26,7.71.08,11.52.57,6.5-2,11.82-5.82,16.62-8.54,10.74-21,14.81-34.71,11.46a31.65,31.65,0,0,1-15-8.85C352,300.2,332.82,281.19,313.85,262,310.72,258.8,308.46,254.77,305.53,250.78ZM238.2,252c60.69.06,116-51.3,113.75-119C350,74.07,302,25.32,242.45,23c-68-2.68-120.63,53-120,116.09C123.14,200.43,174,253,238.2,252Z"/><path class="cls-3" d="M196.69.67c-4.44,1.63-9,3-13.28,5-7,3.24-13.82,6.84-20.62,10.47a10.6,10.6,0,0,1-5.19,1.48q-68.32-.06-136.65,0c-3.25,0-3.24,0-3.24,3.29q0,162.39,0,324.76c0,3-.69,3.21,3.27,3.19,2.56,0,5.12,0,7.69,0,1.29,0,1.95.32,1.93,1.8q-.12,7.05,0,14.1c0,1.55-.65,1.95-2,1.94-6.48,0-13,0-19.43,0C3.74,366.5.22,363,0,357.57c-.06-2,0-4,0-6Q0,181.1,0,10.6C0,6.66.65,3,4.56,1A10.36,10.36,0,0,1,9.05.05C19.51,0,30,0,40.43,0H196.77Z"/><path class="cls-4" d="M180.8,291.41q-46,0-92-.07a6.74,6.74,0,0,1-4.37-1.59c-2.52-2.5-1.15-6.41,2.32-7.26a10.24,10.24,0,0,1,2.53-.24q91.8,0,183.6,0c2.1,0,4.14.17,5.28,2.4a4.55,4.55,0,0,1-3.63,6.75c-.63.06-1.28,0-1.92,0Z"/><path class="cls-5" d="M181.06,352.28h92c3.08,0,4.45.8,5.41,3.17a4.19,4.19,0,0,1-2.32,5.45,11.2,11.2,0,0,1-3.55.54q-91.47,0-182.94,0a9.85,9.85,0,0,1-5-1.3,3.76,3.76,0,0,1-1.28-4.6,4.7,4.7,0,0,1,4.16-3.18,18.25,18.25,0,0,1,2.34,0Z"/><path class="cls-6" d="M180.78,326.24q-46,0-92,0a7.8,7.8,0,0,1-4-1.05,3.88,3.88,0,0,1-1.45-4.58,4.1,4.1,0,0,1,3.51-3,16.69,16.69,0,0,1,2.55-.1H272.12c.78,0,1.56-.07,2.34,0a4.42,4.42,0,0,1,.23,8.83c-.42,0-.85,0-1.28,0Z"/><path class="cls-7" d="M156.61,256.2h-3.16q-32.65,0-65.3,0a4.66,4.66,0,0,1-4.71-3,4,4,0,0,1,1.5-4.92,5,5,0,0,1,2.73-.89q28.59-.07,57.19,0a5.17,5.17,0,0,1,2.68,1c2.66,1.89,5.24,3.89,7.83,5.88a19,19,0,0,1,1.49,1.36Z"/><path class="cls-8" d="M241.48,212.11c0-6,.05-12,0-17.93,0-1.79.53-2.41,2.37-2.62A53.09,53.09,0,0,0,273.74,178a52.51,52.51,0,0,0,14.83-21.75c3-8.29,4.52-16.9,2.79-25.74-.81-4.15-2.1-8.21-3-12.34a2.27,2.27,0,0,1,1-1.84c4-2.1,8.09-4.08,12.15-6.09,7-3.49,14.1-6.93,21.09-10.5,1.49-.76,2.09-.5,2.71,1A95.36,95.36,0,0,1,332.45,142,95.09,95.09,0,0,1,275,224.76a93,93,0,0,1-31.47,7.5c-1.72.09-2-.46-2-2C241.51,224.21,241.47,218.16,241.48,212.11Z"/><path class="cls-9" d="M237.17,91.63a45.84,45.84,0,0,1,2.66,91.61c-28.22,1.32-48.56-20.68-48.48-45.82A45.62,45.62,0,0,1,237.17,91.63Zm0,82.48c19.39.72,37.45-16,37-37.49a36.86,36.86,0,0,0-73.7.82C200.48,158.4,217.86,174.63,237.16,174.11Z"/><path class="cls-10" d="M195.72,52.36c35.19-19.54,96.38-12.56,124.92,39-2.44,1.2-4.85,2.44-7.34,3.52-.32.14-1.18-.49-1.54-1-3.82-5-7.49-10.15-11.38-15.11-4.31-5.47-9.87-9.59-15.61-13.38A84.26,84.26,0,0,0,252.4,52.67,85.52,85.52,0,0,0,212,55.26,88.56,88.56,0,0,0,202.28,59c-1.46.64-2.15.38-2.9-.91C198.28,56.16,197,54.36,195.72,52.36Z"/><path class="cls-11" d="M233.06,228c0,4.32,0,4.48-4.28,4.15a92.43,92.43,0,0,1-23.29-4.9,93.47,93.47,0,0,1-37.8-24.58,91.1,91.1,0,0,1-17.52-26.49,95.84,95.84,0,0,1-6.88-23.43c-.28-1.75.27-2.2,1.81-2.15,2.19.08,4.91-.61,6.43.44,1.31.91,1.34,3.77,1.79,5.8a82.56,82.56,0,0,0,19,37.35A85,85,0,0,0,201.68,216a87.45,87.45,0,0,0,28.71,7.29c2.28.19,3,.92,2.68,3.08A10.71,10.71,0,0,0,233.06,228Z"/><path class="cls-12" d="M174.13,66.8c1.54,2.22,3.09,4.32,4.42,6.55.24.4-.33,1.49-.79,2-4.19,5.09-8.86,9.83-12.57,15.24a81.08,81.08,0,0,0-12.78,32.17,2.45,2.45,0,0,1-1.7,1.55,56.56,56.56,0,0,1-6,.07c-1.15,0-1.63-.36-1.43-1.68A92,92,0,0,1,163,78.12c3-3.73,6.57-7,9.9-10.52A6.68,6.68,0,0,1,174.13,66.8Z"/><path class="cls-13" d="M203.3,94.7c-1.88-2.74-3.73-5.4-5.53-8.1-5.35-8-10.65-16.09-16.06-24.07-.89-1.32-.64-2,.53-2.76a29,29,0,0,0,4.07-2.69c1.58-1.42,2.42-.71,3.33.68Q194.31,64.87,199,72c3.5,5.25,7,10.52,10.56,15.72,1,1.46,1.08,2.35-.64,3.29S205.42,93.28,203.3,94.7Z"/><path class="cls-14" d="M162.34,142c-6,0-12-.06-17.92,0-1.87,0-2.58-.59-2.38-2.48a19.48,19.48,0,0,0,0-4c-.21-2,.71-2.56,2.6-2.54,6.25.08,12.51,0,18.76,0,5.69,0,11.38,0,17.06,0,1.89,0,2.58.61,2.24,2.55a13.75,13.75,0,0,0,0,3.79c.26,2.4.08,2.67-2.45,2.67Z"/></svg>