<svg id="Layer_1" data-name="Layer 1" xmlns="http://www.w3.org/2000/svg" xmlns:xlink="http://www.w3.org/1999/xlink" viewBox="0 0 352.96 400"><defs><style>.cls-1{fill:url(#linear-gradient);}.cls-2{fill:url(#linear-gradient-2);}.cls-3{fill:url(#linear-gradient-3);}.cls-4{fill:url(#linear-gradient-4);}</style><linearGradient id="linear-gradient" y1="332.17" x2="352.96" y2="332.17" gradientUnits="userSpaceOnUse"><stop offset="0" stop-color="#fe0068"/><stop offset="1" stop-color="#9d04c7"/></linearGradient><linearGradient id="linear-gradient-2" x1="169.83" y1="135.21" x2="300.42" y2="135.21" xlink:href="#linear-gradient"/><linearGradient id="linear-gradient-3" x1="297.19" y1="200.03" x2="352.56" y2="200.03" xlink:href="#linear-gradient"/><linearGradient id="linear-gradient-4" x1="117.74" y1="199.73" x2="173.13" y2="199.73" xlink:href="#linear-gradient"/></defs><path class="cls-1" d="M64.16,365.64c0,2.11,0,3.82,0,5.53-.16,4.95-2.6,7.73-7.55,8a137,137,0,0,1-16.58.16A8.08,8.08,0,0,1,34.64,376a203.54,203.54,0,0,1-29.7-74.41C2.82,289.89,1.65,278,0,265.84c1.74-.14,2.89-.29,4-.32,15.61-.4,31.23-.82,46.84-1.18,8.82-.2,10.87,1.85,11.08,10.78,0,1.06.12,2.12.2,3.5h4c14.75-.22,29.5-.85,44.24-.55,17.3.34,34.22,3.53,49.36,12.31,15.49,9,32.29,12.26,49.72,13.55,9.29.69,18.61,1.07,27.92,1.36,9.48.29,16.39,6.71,16.55,15.7.16,9.33-6.3,16.25-16,16.56-19.52.62-39,1-58.55,1.5-6.29.16-12.58.33-18.87.55-4.73.16-6.76,1.57-6.59,4.48.19,3.28,3.45,6,7.36,5.89,9.76-.18,19.51-.42,29.27-.65,14.53-.35,29.06-.77,43.59-1,9.21-.17,17.22-3,23.55-9.91a8.75,8.75,0,0,1,3.19-2.12c23.17-9.18,46.32-18.42,69.58-27.35a37.4,37.4,0,0,1,12.66-2.34c7.81-.08,12.31,8.06,8.3,14.8a16.59,16.59,0,0,1-5.91,5.83q-58.86,32.64-117.9,65c-16.69,9.11-34.64,9.6-52.52,4.91-26.93-7.05-53.64-15-80.42-22.58-9-2.54-17.88-5.23-26.83-7.85C66.78,366.33,65.65,366.05,64.16,365.64Z"/><path class="cls-2" d="M235.06,270.42c-8.14,0-16.27,0-24.4,0-7.9,0-12.45-3.35-15-10.89C186.29,232,180,203.71,175.43,175a414.28,414.28,0,0,1-5.57-57.18c-.52-26.89,7-51.47,23.74-72.65,11.47-14.54,23.94-28.29,36-42.32,3.27-3.79,7.76-3.81,11-.08C252.08,16,263.75,29,274.74,42.5c18.59,22.91,26.74,49.33,25.58,78.83-1.31,33.25-6.47,65.92-14.24,98.18-3.23,13.45-7.42,26.68-11.39,39.94-2.33,7.76-7,10.94-15.24,11S243.19,270.42,235.06,270.42Z"/><path class="cls-3" d="M297.19,232.25,310,167.82c.6.51,1.36,1.07,2,1.73l37.27,37.23c2.33,2.33,3.89,4.85,3.08,8.38a7.71,7.71,0,0,1-6.3,6.22q-21.17,4.92-42.35,9.79C301.6,231.65,299.45,231.88,297.19,232.25Z"/><path class="cls-4" d="M160.28,167.36c4.35,21.9,8.55,43.09,12.85,64.74-1.84-.24-3.93-.34-5.93-.8-13.07-3-26.13-6.07-39.19-9.12-.94-.22-1.89-.43-2.85-.6-3.32-.59-5.82-2.16-7-5.54-1.18-3.54,0-6.37,2.46-8.84,6.73-6.75,13.51-13.46,20.23-20.22C147.3,180.54,153.66,174.06,160.28,167.36Z"/></svg>