<svg id="Layer_1" data-name="Layer 1" xmlns="http://www.w3.org/2000/svg" xmlns:xlink="http://www.w3.org/1999/xlink" viewBox="0 0 352.96 361.12"><defs><style>.cls-1{fill:url(#linear-gradient);}.cls-2{fill:url(#linear-gradient-2);}.cls-3{fill:url(#linear-gradient-3);}.cls-4{fill:url(#linear-gradient-4);}.cls-5{fill:url(#linear-gradient-5);}.cls-6{fill:url(#linear-gradient-6);}</style><linearGradient id="linear-gradient" y1="180.56" x2="352.96" y2="180.56" gradientUnits="userSpaceOnUse"><stop offset="0" stop-color="#fe0068"/><stop offset="1" stop-color="#9d04c7"/></linearGradient><linearGradient id="linear-gradient-2" x1="56.35" y1="112.49" x2="231.6" y2="112.49" xlink:href="#linear-gradient"/><linearGradient id="linear-gradient-3" x1="58.67" y1="250.8" x2="207.23" y2="250.8" xlink:href="#linear-gradient"/><linearGradient id="linear-gradient-4" x1="58.67" y1="286.14" x2="184.67" y2="286.14" xlink:href="#linear-gradient"/><linearGradient id="linear-gradient-5" x1="58.66" y1="321.48" x2="166.19" y2="321.48" xlink:href="#linear-gradient"/><linearGradient id="linear-gradient-6" x1="103.13" y1="112.48" x2="184.77" y2="112.48" xlink:href="#linear-gradient"/></defs><path class="cls-1" d="M158.75,361.11h-121A20.91,20.91,0,0,1,16.8,340.18q0-8.76,0-17.52c0-1-.25-1.37-1.26-1.68C6.92,318.34.48,311.81.09,301.51a20.24,20.24,0,0,1,7.62-16.92,18.19,18.19,0,0,1,7.72-3.93,1.55,1.55,0,0,0,1.4-1.84c-.06-5.49,0-11,0-16.47a1.21,1.21,0,0,0-1.12-1.42A20.75,20.75,0,0,1,.07,241c0-8.43,3.83-14.66,11.1-18.78a21.21,21.21,0,0,1,4.55-1.75A1.26,1.26,0,0,0,16.81,219q0-8.46,0-16.93a1,1,0,0,0-.93-1.19C7,198.47,1,191.58.17,182.43a36.44,36.44,0,0,1,.48-6.22c.22-2.63,1.64-4.81,2.8-7a14.93,14.93,0,0,1,3-3.5,17.41,17.41,0,0,1,3.49-2.82,32.84,32.84,0,0,1,5.29-2.22C17,160,17,160.13,17,158.28c-.06-5.39-.13-10.79-.16-16.19,0-.85-.28-1.19-1.13-1.41A20.9,20.9,0,0,1,3.57,108.8a20.09,20.09,0,0,1,12.18-8.62c.89-.23,1.08-.64,1.07-1.45,0-5.45-.05-10.9,0-16.35a1.64,1.64,0,0,0-1.43-1.94A20.13,20.13,0,0,1,1.73,68.55,20.83,20.83,0,0,1,15.81,40.06c1-.24,1-.78,1-1.53,0-5.8,0-11.6,0-17.4A20.79,20.79,0,0,1,33.27.51,20.32,20.32,0,0,1,37.67,0q78.82,0,157.67,0c2.53,0,5.06.15,7.59.18.77,0,1.54-.18,2.31-.18h75.1a20.91,20.91,0,0,1,20.34,18.32c.11,1.11.18,2.24.18,3.37q0,22.37,0,44.73c0,2.66-.17,5.32-.16,8,0,7.27.15,14.54.15,21.82q0,63.42,0,126.84c0,.93-.14,1.86-.15,2.79a1.08,1.08,0,0,0,.37.75c.1.07.51-.11.68-.28,1.41-1.37,2.81-2.75,4.18-4.15,3.1-3.15,6.16-6.34,9.26-9.48,3.84-3.87,7.7-7.71,11.55-11.56s11.4-5.17,16.8-3c10.33,4.21,12.42,17.77,4.93,25.24q-23.24,23.17-46.42,46.39a3.75,3.75,0,0,0-1.22,2.95c0,22.7.1,45.39,0,68.09,0,7.05-3.37,12.59-9.1,16.63a21.16,21.16,0,0,1-12.56,3.66Q219,361.09,158.75,361.11Zm72.83-42.73c.15-.59.22-.92.33-1.24,2.92-8.78,5.89-17.54,8.74-26.35a19.88,19.88,0,0,1,5-8.69c10.19-9.85,20.19-19.91,30.25-29.91,2.51-2.5,4.93-5.1,7.42-7.63,1.43-1.44,2.95-2.8,4.39-4.23s3-3,4.42-4.58a1.65,1.65,0,0,0,.5-.94c0-1.31-.13-2.62-.13-3.93V20.69A12.68,12.68,0,0,0,280.2,8.37c-2.8,0-5.6,0-8.41,0q-40-.12-79.93-.22c-1.78,0-3.56.22-5.34.22q-74.29,0-148.57,0c-6,0-12.44,4.61-12.81,11.87-.32,6.22-.09,12.46,0,18.69A1.49,1.49,0,0,0,26,40,20.66,20.66,0,0,1,40.76,53.48a16.92,16.92,0,0,1,1.08,6.86H33.65a13.07,13.07,0,0,0-2.38-7.2,11.79,11.79,0,0,0-6.12-4.56c0,.5-.08.84-.08,1.18q0,24.36,0,48.7a1.53,1.53,0,0,0,1.41,1.8,20.75,20.75,0,0,1,15.31,17.93c.22,2.57.66,2.31-2.1,2.31h-5c-.3,0-.6-.06-.95-.09a13.65,13.65,0,0,0-2.44-7.13,11.57,11.57,0,0,0-6.08-4.53c-.05.45-.11.76-.11,1.06Q25,130,24.92,150.16c0,3,.12,5.9.13,8.85,0,.77.25,1.06,1,1.26a20.41,20.41,0,0,1,14.61,13.18,17.4,17.4,0,0,1,1.18,7H33.75c-1.44-6.58-4.62-10.84-8.63-11.51,0,.35-.05.68-.05,1v48.7c0,.2,0,.39,0,.59-.05.7.27,1,1,1.18A20.54,20.54,0,0,1,40.73,233.8a17,17,0,0,1,1.09,6.87c-2.27,0-4.48-.09-6.67,0-1.24.07-1.56-.38-1.71-1.5a12.24,12.24,0,0,0-6.95-9.73c-.39-.2-.82-.33-1.34-.53,0,.48-.08.78-.08,1.08,0,16.32,0,32.63,0,48.94a1.45,1.45,0,0,0,1.32,1.66,20.83,20.83,0,0,1,15.53,19.24c0,.79-.25,1-1,1-2.34,0-4.69,0-7,0-1.22-6.33-5.17-11.56-8.67-11.54a.94.94,0,0,0-.11.32c-.07,5-.15,10-.17,15.05,0,2.31.13,4.63.13,6.94q0,14.13,0,28.27A13,13,0,0,0,38,352.78q62.13-.12,124.27,0H280.09a12.65,12.65,0,0,0,12.44-12.32q0-29.73,0-59.45a10.66,10.66,0,0,0-.18-1.32c-.37.31-.55.44-.71.6q-13,13-26.11,26.07a7.07,7.07,0,0,1-2.62,1.6c-6.84,2.34-13.71,4.6-20.57,6.88Zm39.18-29.23c.31-.26.58-.47.82-.71q27.71-27.7,55.41-55.38c.63-.63.59-1,0-1.59-2.81-2.75-5.61-5.51-8.34-8.33-.79-.81-1.23-.83-2.05,0Q301.2,238.6,285.73,254l-24.18,24.18c-.53.53-1,.93-.21,1.7,3,2.88,5.84,5.82,8.76,8.73C270.29,288.8,270.51,289,270.76,289.15Zm62.59-62.64.35-.32a1.46,1.46,0,0,0,.3-.17c2.92-2.91,5.89-5.78,8.73-8.77a7,7,0,0,0-.27-10,7.13,7.13,0,0,0-10,0c-2.77,2.67-5.45,5.45-8.19,8.15-.58.57-.57.95,0,1.51q3.92,3.86,7.76,7.76A15.28,15.28,0,0,1,333.35,226.51Zm-68.64,68.76-10.13-10.09c-1.32,1.32-2.71,2.66-4,4.07a5.07,5.07,0,0,0-1.09,1.73c-1.43,4.15-2.81,8.33-4.19,12.5-.15.45-.23.92-.38,1.5a7.16,7.16,0,0,0,.87-.14l13.51-4.5A2.1,2.1,0,0,0,260,300C261.57,298.44,263.12,296.86,264.71,295.27ZM16.8,289.17c-4.34.9-8.23,6.34-8.43,11-.26,6.16,4.27,11.22,8.43,12.27Zm-.09-120.25a12.39,12.39,0,0,0-8.29,12.92c.47,5.08,4.83,9.67,8.29,10.25Zm0,60.15c-4,1-8.76,6-8.32,12.54.37,5.41,5,10.17,8.32,10.6ZM16.65,132v-23.2C12.5,110,7.89,115.06,8.4,121.5,8.78,126.35,12.56,131,16.65,132Zm0-60.13V48.68C12.37,49.87,7.92,55,8.4,61.32,8.8,66.63,13.12,71.14,16.68,71.88Z"/><path class="cls-2" d="M81.8,76.18c-.36-.56-.72-1.15-1.11-1.72C77.81,70.36,75,66.24,72,62.17a1.15,1.15,0,0,1,.17-1.77Q79.61,53,87,45.59c1.39-1.41,2.8-2.81,4.15-4.27.57-.61,1-.6,1.67-.12,4.32,3,8.68,5.9,13,8.86a1.86,1.86,0,0,0,2.37.14,66.29,66.29,0,0,1,16.28-6.87,1.78,1.78,0,0,0,1.48-1.64c.88-5.14,1.82-10.26,2.7-15.4.15-.84.39-1.26,1.38-1.26q13.31,0,26.62-.16c1.08,0,1.42.34,1.61,1.4.92,5.17,2,10.32,2.94,15.48A1.37,1.37,0,0,0,162.31,43a72.36,72.36,0,0,1,17.27,6.94,1.78,1.78,0,0,0,1.55-.21q6.57-4.53,13.07-9.18a1.14,1.14,0,0,1,1.78.12q9.51,9.45,19.11,18.84a1.14,1.14,0,0,1,.2,1.76c-3,4.41-6,8.86-9.08,13.28a1.4,1.4,0,0,0-.09,1.78,68.16,68.16,0,0,1,7.09,17,1.31,1.31,0,0,0,1.25,1.09c5.21.9,10.41,1.84,15.62,2.73,1,.18,1.45.54,1.45,1.71,0,8.76,0,17.52.07,26.28,0,1-.26,1.39-1.29,1.58q-7.81,1.41-15.58,3a1.91,1.91,0,0,0-1.23,1.12,75.92,75.92,0,0,1-6.93,17.15,2.19,2.19,0,0,0,.2,1.9c2.35,3.4,4.8,6.73,7.21,10.09.66.91,1.24,1.89,2,2.76.57.68.53,1.12-.11,1.75-4.44,4.42-8.84,8.88-13.25,13.33-1.88,1.91-3.78,3.81-5.63,5.76a1.12,1.12,0,0,1-1.76.2c-3.2-2.26-6.46-4.45-9.7-6.66-1.21-.82-2.45-1.61-3.63-2.47a1.62,1.62,0,0,0-1.94-.07c-1.93,1-3.88,2-5.82,3.07a55.91,55.91,0,0,1-11,4.13,1.77,1.77,0,0,0-1,1.23q-1.38,7.15-2.6,14.35c-.44,2.6-.39,2.6-3,2.61-8.36.06-16.73.11-25.09.2-.94,0-1.42-.14-1.62-1.25-.91-5.13-2-10.23-2.93-15.36a1.86,1.86,0,0,0-1.57-1.69A68,68,0,0,1,108.62,175a1.29,1.29,0,0,0-1.58.09c-4.39,3.09-8.83,6.11-13.19,9.23-.91.65-1.36.44-2-.23q-8-8.06-16.14-16a29.76,29.76,0,0,0-2.48-2.3c-1-.77-.94-1.45-.27-2.42,3-4.34,5.94-8.74,9-13.09a1.2,1.2,0,0,0,0-1.54,68.86,68.86,0,0,1-7.15-17.05c-.28-1-1.07-1-1.8-1.15-5.09-.92-10.18-1.84-15.28-2.69-.92-.16-1.2-.48-1.18-1.41,0-3.19,0-6.38,0-9.57q-.06-8.46-.17-16.92c0-.94.16-1.46,1.24-1.66,5.24-.94,10.47-2,15.7-3,.62-.12,1-.28,1.21-1a70.33,70.33,0,0,1,7-17.36A5.26,5.26,0,0,0,81.8,76.18ZM195,173.35a6.28,6.28,0,0,0,.64-.48c3.2-3.23,6.41-6.46,9.59-9.72a1,1,0,0,0,.15-1c-1.5-2.31-3-4.6-4.61-6.86-1.22-1.74-2.51-3.45-3.82-5.13a1.9,1.9,0,0,1,0-2.58c1.14-1.71,2.17-3.5,3.15-5.31a59.31,59.31,0,0,0,6.31-18.08c.22-1.31.84-1.69,2-1.89,4.48-.81,8.94-1.72,13.42-2.52,1.15-.21,1.63-.6,1.59-1.87-.13-4.2-.16-8.4-.16-12.6,0-.86-.42-1.06-1.09-1.18l-13.33-2.36c-2.22-.39-2.22-.38-2.67-2.54a63.06,63.06,0,0,0-9.89-23c-.49-.71-.61-1.23,0-1.93a23.83,23.83,0,0,0,1.5-2.21q3.34-4.92,6.7-9.83c.35-.52.58-1,0-1.52q-4.82-4.66-9.58-9.4c-.48-.47-.82-.47-1.39-.06-3.9,2.76-7.87,5.42-11.73,8.23a1.88,1.88,0,0,1-2.56,0A61.79,61.79,0,0,0,155.3,50,1.3,1.3,0,0,1,154,48.78c-.84-4.63-1.75-9.25-2.62-13.87-.3-1.61-.34-1.68-1.91-1.68-4.13,0-8.25,0-12.38,0-1,0-1.32.27-1.49,1.26-.8,4.79-1.73,9.57-2.54,14.36-.15.87-.58,1.08-1.33,1.3-4.06,1.19-8.14,2.33-12.13,3.75a54.26,54.26,0,0,0-11.87,6.41,1.43,1.43,0,0,1-1.87,0c-4-2.77-8-5.47-12-8.24-.76-.52-1.18-.37-1.76.23-2.85,2.93-5.73,5.83-8.6,8.73-1.22,1.23-1.22,1.21-.21,2.63,2.69,3.81,5.36,7.64,8.06,11.44a1.4,1.4,0,0,1,0,1.87,59.17,59.17,0,0,0-6.73,13c-.83,2.29-1.49,4.64-2.16,7-.44,1.52-.71,3.09-1.15,4.61a1.4,1.4,0,0,1-.89.82c-4.84,1-9.69,1.91-14.55,2.79-.91.16-1.22.46-1.2,1.4.07,4.12.07,8.25.1,12.37,0,1.71,0,1.69,1.67,2,4.63.81,9.26,1.65,13.9,2.44a1.43,1.43,0,0,1,1.33,1.32c.31,1.6.71,3.19,1.13,4.76a63.49,63.49,0,0,0,9,19.34,1.35,1.35,0,0,1,0,1.77c-2.75,4-5.47,8-8.24,12a1.12,1.12,0,0,0,.15,1.76q4.65,4.5,9.21,9.11c.6.61,1,.57,1.66.1,3.9-2.76,7.85-5.46,11.74-8.24a1.71,1.71,0,0,1,2.27,0,53,53,0,0,0,12,6.24c4,1.36,8,2.39,12.08,3.51.74.2,1.12.48,1.24,1.27.24,1.53.58,3.05.88,4.58.65,3.36,1.31,6.72,2,10.09.1.55.24.91.94.9,4.32-.06,8.64-.11,13-.09,1.06,0,1.51-.32,1.69-1.38.77-4.65,1.65-9.27,2.41-13.92.18-1.11.69-1.5,1.74-1.77,3.27-.83,6.55-1.67,9.75-2.75a60.6,60.6,0,0,0,14.24-7.39,1.49,1.49,0,0,1,1.32,0c1.86,1.18,3.67,2.44,5.49,3.68l6.71,4.58C194.31,173,194.61,173.13,195,173.35Z"/><path class="cls-3" d="M148.21,254.92q-27,0-54.06,0c-3.26,0-6.51-.16-9.76-.15-8,0-16.11.11-24.16.17-1.53,0-1.53,0-1.53-1.53,0-1.79.06-3.59,0-5.37-.06-1.1.33-1.38,1.39-1.37q16,0,32,0h22.21q45.77,0,91.54,0c1,0,1.47.22,1.41,1.36-.09,1.82-.09,3.66,0,5.48.06,1.13-.32,1.45-1.44,1.45-10.35,0-20.71,0-31.06,0H148.21Z"/><path class="cls-4" d="M184.67,290.18c-.55,0-1,.1-1.46.1H72.15c-4,0-8,0-12,0-1.23,0-1.5-.37-1.45-1.52.1-2.21,0-4.42,0-6.79H182.58a5.43,5.43,0,0,1,1.4.05c.27.07.66.44.66.68C184.69,285.18,184.67,287.62,184.67,290.18Z"/><path class="cls-5" d="M112.51,317.35H164.6c1.58,0,1.58,0,1.57,1.59,0,1.79-.06,3.58,0,5.37.05,1.05-.31,1.3-1.33,1.3q-25.8,0-51.62,0h-53c-1.52,0-1.52,0-1.52-1.54,0-1.76.08-3.51,0-5.26-.08-1.24.39-1.47,1.53-1.47,11.68,0,23.36,0,35,0Z"/><path class="cls-6" d="M184.77,112.49a40.82,40.82,0,1,1-41-40.87A40.71,40.71,0,0,1,184.77,112.49Zm-73.35-.11a32.55,32.55,0,1,0,65.1,0,32.55,32.55,0,0,0-65.1,0Z"/></svg>