<?xml version="1.0" encoding="utf-8"?>
<!-- Generator: Adobe Illustrator 24.2.3, SVG Export Plug-In . SVG Version: 6.00 Build 0)  -->
<svg version="1.1" id="Layer_1" xmlns="http://www.w3.org/2000/svg" xmlns:xlink="http://www.w3.org/1999/xlink" x="0px" y="0px"
	 viewBox="0 0 353 352.9" style="enable-background:new 0 0 353 352.9;" xml:space="preserve">
<style type="text/css">
	.st0{fill:#FFFFFF;}
</style>
<path class="st0" d="M327,0v34.5h26v127.9h-26.1v49.9h-10.3v-49.8H170.1V34.7h84.2v10.1h-73.8v100.9l59-50.7l32.2,29.6l45.6-46.5
	l25.1,23.9V45h-77.4V34.7h51.1V10.4h-34.2V0H327z M259.8,151.7h82.7c0.1-0.3,0.2-0.7,0.2-1c0-7.4-0.6-14.8,0.2-22
	c0.9-8.7-1.7-15-8.6-20.4c-5.9-4.6-11-10.3-16.7-15.6L259.8,151.7z M265.4,132.9l-26.1-24l-49.6,42.7c0.6,0.2,1.1,0.3,1.7,0.4
	c17.2,0,34.4,0,51.7,0c1.1,0,2.2-0.5,3-1.2C252.4,145,258.7,139.1,265.4,132.9z"/>
<path class="st0" d="M0,200c2.1-8.1,7.5-12.9,15.2-16c8.1-3.2,15.8-7.2,23.8-10.7c1.7-0.6,3-2.2,3.2-4c1.9-10.1,6-13.9,16-15.7
	c4.1-0.7,8.1-1.4,12.6-2.1v-27h10.7V121c0-21.9,0-43.9-0.1-65.8c-0.1-2.4,0.8-4.7,2.6-6.3c15.4-15.3,30.8-30.6,46.1-46
	c0.8-0.8,1.6-1.8,2.4-2.8h139.3v10.3H140.3v48.3H92c-0.1,1.5-0.2,2.6-0.2,3.7c0,21.2,0,42.3,0,63.5c-0.2,1.8,0.6,3.6,2.2,4.6
	c7,5.1,11.1,12,12.5,20.6c0.4,1.8,1.5,3.5,2.9,4.7c10.5,8.9,20,18.6,27.8,30.6l-8.3,5.4c-3.6-4.4-6.8-9-10.7-13
	c-6-6.1-12.4-11.9-18.8-17.7c-1.9-1.7-3-3.3-3.1-6c-0.3-9.5-6.4-17.3-15.1-19.1v8.1c0,4.6-0.1,9.2,0,13.8c0,2-0.6,2.8-2.7,3.1
	c-6.7,0.9-13.4,2.2-20.1,3.2c-3.3,0.5-5.6,2.3-5.7,5.5c-0.2,8.1-4.7,11.8-11.8,14.4c-8.4,3.1-16.4,7.3-24.5,11
	c-5.1,2.4-6.8,5.6-5.7,11.1c1,4.6,1.9,9.2,2.9,13.8c1.3,5.5,4.7,8,10.3,7.3c15-2.2,30-4.5,45-6.7c1.2-0.2,2.5-0.3,3.7-0.4
	c6,25.3,4.9,37.2-17.2,57.8l-7.6-6.7c3.7-4,7.3-7.7,10.7-11.6c6.5-7.7,8.6-18.2,5.5-27.8l-21.7,3.2c-5.8,0.9-11.6,1.8-17.4,2.5
	c-10.5,1.3-19.2-5.1-21.5-15.5c-1.1-5-2.3-10-3.5-15L0,200z M129.6,19l-29.2,29.1h29.2V19z"/>
<path class="st0" d="M20,352.9c0-7-0.4-13.8,0.1-20.5c0.5-7.5,4.8-12.8,11.7-15.7c2-0.9,2.5-1.9,2.6-4c0.1-7.2,0.7-14.4,1.6-21.6
	c0.6-3.9,2.8-7.6,4.5-11.7l8.1,5.4c-1.3,5.3-3,10.1-3.5,15s-0.1,10-0.1,15.3h20.4v10.5H54.1c-5.1,0-10.1-0.1-15.2,0
	c-4.6-0.1-8.4,3.6-8.5,8.2c-0.2,2.9,0,5.7,0,8.8h120.5c0-3.6,0.4-7.3-0.1-10.8c-0.6-4-4.4-6.2-9.1-6.2c-15.4,0-30.8,0-46.2,0H76.2
	v-10.2h61.2c0.8-5.1,1.5-10,2.2-14.9c2.4-17.5,4.3-35.1,4-52.9c-0.3-16.3-2.9-32-10.2-47.1l9.1-4.7c4,7.5,6.8,15.6,8.5,24
	c4.1,19.1,3.6,38.4,1.7,57.7c-1.3,12.8-3,25.5-4.6,38.5c12.8,4.5,14.3,15,13.3,26.7h154.9V223h10.2v129.9H20z"/>
<path class="st0" d="M209.8,93.2c-10.5,0-19-8.4-19.1-18.9s8.4-19,18.9-19.1c10.5,0,19,8.4,19.1,18.9c0.1,10.4-8.3,19-18.7,19.1
	C209.9,93.2,209.8,93.2,209.8,93.2z M218.2,74.4c0.1-4.7-3.6-8.6-8.4-8.7s-8.6,3.6-8.7,8.4c-0.1,4.7,3.6,8.6,8.4,8.7
	C214.2,82.8,218.1,79.1,218.2,74.4L218.2,74.4z"/>
<path class="st0" d="M209.1,300.6h-30.7v-30.8h30.7V300.6z M188.8,280.1v10h9.8v-10H188.8z"/>
<path class="st0" d="M209.1,221.5v30.7h-30.7v-30.7H209.1z M198.7,241.7v-9.9h-9.8v9.9H198.7z"/>
<path class="st0" d="M245.8,203.7v-10h47.9v10H245.8z"/>
<path class="st0" d="M178.8,203.7v-10h35.4v10H178.8z"/>
<path class="st0" d="M255.8,221.5v9.9h-35.6v-9.9H255.8z"/>
<path class="st0" d="M220.3,269.8h35.5v9.9h-35.5V269.8z"/>
<path class="st0" d="M124.7,203.9l-9.3,4.8l-17.5-22.6l7.9-6.6L124.7,203.9z"/>
<path class="st0" d="M272,72.3v-9.9h27.3v9.9H272z"/>
<path class="st0" d="M266.6,221.4h27.1v10h-27.1V221.4z"/>
<path class="st0" d="M293.7,279.8h-27.2v-9.9h27.2V279.8z"/>
<path class="st0" d="M245.4,252.2h-25v-10h25V252.2z"/>
<path class="st0" d="M245.5,290.6v9.9h-25.2v-9.9H245.5z"/>
<path class="st0" d="M261.3,62.4v9.8h-9.9v-9.8H261.3z"/>
<path class="st0" d="M235.1,193.7v9.9h-10v-9.9H235.1z"/>
<path class="st0" d="M131.1,225.2l-10.1,2l-2.6-9.2l9.8-3.4C129.2,218.1,130.1,221.5,131.1,225.2z"/>
<path class="st0" d="M256.3,242.1h9.7v10h-9.8L256.3,242.1z"/>
<path class="st0" d="M256.1,300.5v-9.9h10v9.9H256.1z"/>
</svg>
