<svg id="Layer_1" data-name="Layer 1" xmlns="http://www.w3.org/2000/svg" xmlns:xlink="http://www.w3.org/1999/xlink" viewBox="0 0 368.68 352.88"><defs><style>.cls-1{fill:url(#linear-gradient);}.cls-2{fill:url(#linear-gradient-2);}.cls-3{fill:url(#linear-gradient-3);}.cls-4{fill:url(#linear-gradient-4);}.cls-5{fill:url(#linear-gradient-5);}.cls-6{fill:url(#linear-gradient-6);}.cls-7{fill:url(#linear-gradient-7);}.cls-8{fill:url(#linear-gradient-8);}.cls-9{fill:url(#linear-gradient-9);}.cls-10{fill:url(#linear-gradient-10);}.cls-11{fill:url(#linear-gradient-11);}.cls-12{fill:url(#linear-gradient-12);}.cls-13{fill:url(#linear-gradient-13);}.cls-14{fill:url(#linear-gradient-14);}.cls-15{fill:url(#linear-gradient-15);}</style><linearGradient id="linear-gradient" y1="306.56" x2="357.59" y2="306.56" gradientUnits="userSpaceOnUse"><stop offset="0" stop-color="#fe0068"/><stop offset="1" stop-color="#9d04c7"/></linearGradient><linearGradient id="linear-gradient-2" x1="54.36" y1="141.96" x2="303.05" y2="141.96" xlink:href="#linear-gradient"/><linearGradient id="linear-gradient-3" x1="22.59" y1="141.93" x2="335.12" y2="141.93" xlink:href="#linear-gradient"/><linearGradient id="linear-gradient-4" x1="184.17" y1="53.3" x2="238.16" y2="53.3" xlink:href="#linear-gradient"/><linearGradient id="linear-gradient-5" x1="184.15" y1="129.97" x2="237.77" y2="129.97" xlink:href="#linear-gradient"/><linearGradient id="linear-gradient-6" x1="249.11" y1="64.51" x2="310.05" y2="64.51" xlink:href="#linear-gradient"/><linearGradient id="linear-gradient-7" x1="249.1" y1="118.39" x2="310.05" y2="118.39" xlink:href="#linear-gradient"/><linearGradient id="linear-gradient-8" x1="321.59" y1="56.11" x2="368.68" y2="56.11" xlink:href="#linear-gradient"/><linearGradient id="linear-gradient-9" x1="321.76" y1="127.16" x2="368.65" y2="127.16" xlink:href="#linear-gradient"/><linearGradient id="linear-gradient-10" x1="257.76" y1="167.39" x2="301.78" y2="167.39" xlink:href="#linear-gradient"/><linearGradient id="linear-gradient-11" x1="258.07" y1="16.37" x2="301.36" y2="16.37" xlink:href="#linear-gradient"/><linearGradient id="linear-gradient-12" x1="226.12" y1="13.79" x2="252.41" y2="13.79" xlink:href="#linear-gradient"/><linearGradient id="linear-gradient-13" x1="226.04" y1="169.36" x2="251.73" y2="169.36" xlink:href="#linear-gradient"/><linearGradient id="linear-gradient-14" x1="308.33" y1="15.33" x2="331.75" y2="15.33" xlink:href="#linear-gradient"/><linearGradient id="linear-gradient-15" x1="308.92" y1="167.88" x2="331.9" y2="167.88" xlink:href="#linear-gradient"/></defs><path class="cls-1" d="M178.68,352.81q-82.41,0-164.82,0a21.53,21.53,0,0,1-7.21-1c-5.55-2-7.79-7.08-6.09-13.17q9.06-32.47,18.21-64.91c.38-1.35.75-2.7,1.13-4.06,1.81-6.44,5.56-9.36,12.2-9.36H325.53c6.69,0,10.36,2.82,12.2,9.35,6.35,22.52,12.38,45.15,19.13,67.55,3.11,10.35-4.28,15.76-12,15.74C289.49,352.73,234.08,352.8,178.68,352.81Zm80.07-18.63h35.47c8.93,0,9.35-.42,9.29-9.26,0-5.42-1.28-6.7-6.58-6.71H220.71c-4.87,0-6.2,1.37-6.24,6.28,0,1.05,0,2.1,0,3.16,0,5.27,1.31,6.53,6.69,6.54Zm31.61-36c3.16,0,6.32-.06,9.47,0,2.31.07,3.6-.9,3.64-3.21.07-3.27.06-6.55,0-9.82,0-2.17-1.32-3.11-3.41-3.11q-9.65,0-19.29,0c-2.33,0-3.46,1.12-3.47,3.42,0,3,0,6.08,0,9.12,0,2.42,1,3.68,3.61,3.6C284,298.11,287.2,298.18,290.36,298.18Zm-173,0c3.15,0,6.31-.06,9.46,0,2.55.07,3.61-1.1,3.55-3.59-.06-3-.05-6.08,0-9.11,0-2.36-1.09-3.44-3.4-3.44H107.7c-2.31,0-3.44,1.16-3.43,3.45,0,3.16,0,6.31,0,9.47,0,2.11,1.07,3.22,3.26,3.2C110.81,298.16,114.09,298.18,117.36,298.18Zm-55.18,0c3.28,0,6.55,0,9.82,0,2.13,0,3.32-.92,3.33-3.12q0-4.92,0-9.82c0-2.21-1.25-3.17-3.33-3.18H52.71c-2.49,0-3.58,1.22-3.51,3.71.08,2.92.09,5.85,0,8.77-.08,2.76,1.25,3.74,3.87,3.66C56.1,298.11,59.14,298.18,62.18,298.18Zm110.25,0a84.22,84.22,0,0,0,9.8-.13c1.19-.14,3-1.64,3.16-2.69a49,49,0,0,0,0-10.48,4.07,4.07,0,0,0-2.89-2.67c-6.65-.25-13.31-.15-20-.13-2.19,0-3.11,1.26-3.08,3.38,0,3,.06,6.08,0,9.12-.06,2.49,1,3.68,3.53,3.62C166.12,298.12,169.27,298.18,172.43,298.18Zm55.15,0c3.16,0,6.32-.06,9.47,0,2.55.06,3.61-1.11,3.55-3.61-.06-3,0-6.08,0-9.11,0-2.37-1.15-3.42-3.44-3.42H217.87c-2.29,0-3.43,1.14-3.4,3.47q0,4.56,0,9.12c0,2.52,1.15,3.6,3.65,3.54C221.27,298.13,224.42,298.19,227.58,298.18ZM62,334.18c3.16,0,6.31-.09,9.46,0,2.9.11,4-1.21,3.9-4s-.08-5.61,0-8.41c.06-2.51-1-3.62-3.56-3.6-6.43.05-12.85,0-19.27,0-2.38,0-3.38,1.09-3.33,3.43.07,2.92.1,5.84,0,8.76-.1,2.66,1,3.89,3.7,3.81C55.94,334.11,59,334.18,62,334.18Zm55.47,0c3.15,0,6.3-.05,9.46,0,2.32.05,3.47-.93,3.43-3.32-.05-3.15,0-6.3,0-9.45,0-2.19-1-3.24-3.17-3.23q-9.8,0-19.61,0c-2.38,0-3.36,1.2-3.34,3.48,0,3,0,6.07,0,9.11,0,2.32,1.06,3.44,3.41,3.41C110.94,334.15,114.21,334.18,117.48,334.18Zm55,0h9.81c2.13,0,3.29-1,3.3-3.15a77.89,77.89,0,0,0-.13-9.79,4.25,4.25,0,0,0-2.94-2.9c-6.64-.27-13.3-.14-20-.14-2.22,0-3.11,1.17-3.07,3.31.05,3.15.05,6.31,0,9.46,0,2.19,1,3.23,3.17,3.21C165.89,334.16,169.16,334.18,172.43,334.18Z"/><path class="cls-2" d="M166,71c-5.68,40.16,4.54,75,33.45,103.13s63.8,37.28,103.21,30.7c1.3,5.29-.76,8-6.31,8q-28.65,0-57.29,0H62.65c-6.8,0-8.29-1.48-8.29-8.21q0-62.92,0-125.83c0-6.26,1.56-7.79,7.94-7.79H166Z"/><path class="cls-3" d="M176.93,39.39c-2.13,5-3.88,9.62-6.05,14-.44.9-2.43,1.45-3.72,1.46-20.14.09-40.28.06-60.43.06H44.89c-5.45,0-6.58,1.11-6.58,6.6q0,80.3,0,160.58c0,5.95,1,6.87,7,6.88H312c6.42,0,7.31-.91,7.31-7.31s.1-12.65,0-19c-.05-2.12.71-3,2.62-3.77,4.31-1.71,8.5-3.72,13.2-5.83v6.2q0,17.92,0,35.84c0,6.94-2.61,9.53-9.56,9.53H32.16c-7.06,0-9.56-2.46-9.56-9.46q0-93.28,0-186.58c0-6.83,2.52-9.39,9.28-9.4q70.62,0,141.25,0C174.17,39.22,175.21,39.31,176.93,39.39Z"/><path class="cls-4" d="M184.17,83.37c2.48-23.94,12.4-43.71,29.78-60.13,6.41,7.58,14.25,12.75,22.92,16.82a3.18,3.18,0,0,1,1.27,2.64c-1.73,13.45-3.59,26.89-5.47,40.67Z"/><path class="cls-5" d="M232.89,99.92c1.63,14.28,3.23,28.31,4.88,42.79-8.58,3.91-17,9-23.83,17.3-17.42-16.4-27.25-36.21-29.79-60.09Z"/><path class="cls-6" d="M249.11,83.39l4.34-37.76a126.59,126.59,0,0,0,52.5.73c1.38,12.45,2.72,24.58,4.1,37Z"/><path class="cls-7" d="M310.05,100c-1.29,12.28-2.56,24.29-3.81,36.11-9.37-.63-18-1.75-26.53-1.64s-17.15,1.45-26.57,2.33c-1.31-11.94-2.65-24.18-4-36.8Z"/><path class="cls-8" d="M368.68,83.42H326.26c-1.56-13.74-3.13-27.5-4.67-41L344.47,28.8C358.3,43.78,366.6,62,368.68,83.42Z"/><path class="cls-9" d="M326.31,99.86h42.34a91.79,91.79,0,0,1-24.1,54.59l-22.79-13.67Q324,121.09,326.31,99.86Z"/><path class="cls-10" d="M257.76,153.09a107,107,0,0,1,44-.71c-3.87,11.17-7.36,22.15-16.78,29.82-3.53,2.87-7,2.82-10.61.1a26.65,26.65,0,0,1-5.19-5.15C263.71,170.05,260.5,161.85,257.76,153.09Z"/><path class="cls-11" d="M258.07,30.15c2.79-8.72,6.06-16.82,11.61-23.77,6.83-8.55,13.16-8.5,20,.12,5.59,7.08,8.87,15.3,11.72,24.27A104.72,104.72,0,0,1,258.07,30.15Z"/><path class="cls-12" d="M242.13,25.37,226.12,14A88.52,88.52,0,0,1,252.41,2.2C249.06,9.76,245.79,17.11,242.13,25.37Z"/><path class="cls-13" d="M251.73,180.85A88.83,88.83,0,0,1,226,169.3c5.61-4.06,10.65-7.69,15.83-11.42C245.3,165.88,248.45,173.22,251.73,180.85Z"/><path class="cls-14" d="M308.88,4.23l22.87,12.42L331.68,18l-14.37,8.45c-3.15-7.49-6.06-14.43-9-21.36Z"/><path class="cls-15" d="M308.92,178.11l8.65-21.23,14.11,8.26c.07.45.15.9.22,1.35l-22.6,12.39Z"/></svg>