<svg id="Layer_1" data-name="Layer 1" xmlns="http://www.w3.org/2000/svg" xmlns:xlink="http://www.w3.org/1999/xlink" viewBox="0 0 380.84 352.88"><defs><style>.cls-1{fill:url(#linear-gradient);}.cls-2{fill:url(#linear-gradient-2);}.cls-3{fill:url(#linear-gradient-3);}.cls-4{fill:url(#linear-gradient-4);}.cls-5{fill:url(#linear-gradient-5);}.cls-6{fill:url(#linear-gradient-6);}.cls-7{fill:url(#linear-gradient-7);}.cls-8{fill:url(#linear-gradient-8);}.cls-9{fill:url(#linear-gradient-9);}.cls-10{fill:url(#linear-gradient-10);}.cls-11{fill:url(#linear-gradient-11);}.cls-12{fill:url(#linear-gradient-12);}.cls-13{fill:url(#linear-gradient-13);}.cls-14{fill:url(#linear-gradient-14);}.cls-15{fill:url(#linear-gradient-15);}.cls-16{fill:url(#linear-gradient-16);}</style><linearGradient id="linear-gradient" x1="38.79" y1="165.76" x2="281.93" y2="165.76" gradientUnits="userSpaceOnUse"><stop offset="0" stop-color="#fe0068"/><stop offset="1" stop-color="#9d04c7"/></linearGradient><linearGradient id="linear-gradient-2" x1="40.81" y1="162.51" x2="380.84" y2="162.51" xlink:href="#linear-gradient"/><linearGradient id="linear-gradient-3" x1="76.18" y1="321.05" x2="139.71" y2="321.05" xlink:href="#linear-gradient"/><linearGradient id="linear-gradient-4" x1="199.2" y1="321.06" x2="262.87" y2="321.06" xlink:href="#linear-gradient"/><linearGradient id="linear-gradient-5" x1="0.03" y1="53.64" x2="54.03" y2="53.64" xlink:href="#linear-gradient"/><linearGradient id="linear-gradient-6" x1="0" y1="130.17" x2="53.68" y2="130.17" xlink:href="#linear-gradient"/><linearGradient id="linear-gradient-7" x1="65.26" y1="65.31" x2="126.4" y2="65.31" xlink:href="#linear-gradient"/><linearGradient id="linear-gradient-8" x1="65.18" y1="119.4" x2="125.8" y2="119.4" xlink:href="#linear-gradient"/><linearGradient id="linear-gradient-9" x1="137.84" y1="56.7" x2="185.3" y2="56.7" xlink:href="#linear-gradient"/><linearGradient id="linear-gradient-10" x1="138.14" y1="127.84" x2="185.27" y2="127.84" xlink:href="#linear-gradient"/><linearGradient id="linear-gradient-11" x1="73.82" y1="168.17" x2="118.02" y2="168.17" xlink:href="#linear-gradient"/><linearGradient id="linear-gradient-12" x1="74.19" y1="16.48" x2="118.19" y2="16.48" xlink:href="#linear-gradient"/><linearGradient id="linear-gradient-13" x1="42.63" y1="13.65" x2="68.38" y2="13.65" xlink:href="#linear-gradient"/><linearGradient id="linear-gradient-14" x1="42.69" y1="170.65" x2="68.24" y2="170.65" xlink:href="#linear-gradient"/><linearGradient id="linear-gradient-15" x1="124.7" y1="15.5" x2="147.98" y2="15.5" xlink:href="#linear-gradient"/><linearGradient id="linear-gradient-16" x1="125.26" y1="168.68" x2="148.26" y2="168.68" xlink:href="#linear-gradient"/></defs><path class="cls-1" d="M38.79,189.86c37.47,16.72,74.08,16.34,109-4.78s52.46-53,55.23-93.92h70.59c6.84,0,9.24,2.84,8,9.56q-12.45,65-24.93,130c-.25,1.3-.45,2.62-.75,3.91-.94,4.08-2.89,5.69-7.14,5.73-6.41,0-12.82,0-19.23,0H65.18c-7.07,0-8-.63-10.36-7.09Q47.41,213.21,40,193.15C39.62,192.18,39.27,191.2,38.79,189.86Z"/><path class="cls-2" d="M325.93,76.29c-.94,5.62-1.84,10.81-2.69,16q-12.17,74.25-24.31,148.5c-.58,3.57-.68,7.26-1.62,10.72C293.25,266.41,280,276.13,264,276.13h-192c-1.69,0-3.39-.06-5.08,0-6.33.36-10.26,4.42-10.4,10.72,0,2.42.08,4.84,0,7.26-.26,4.84-3.6,8.06-8.1,8s-7.58-3.36-7.59-8.36c0-4-.27-8,.39-11.94C43.37,269.45,53.57,261,66.5,260.44c1.81-.08,3.63,0,5.44,0H261.35c13.68,0,19.47-5.15,21.62-18.56,5-31,10.15-62,15.25-93,3.69-22.42,7.61-44.81,10.94-67.28,1-7,2.28-13.53,7.09-19,.46-.52.26-2-.1-2.81-2.65-6.11-1.34-10.47,4.39-13.8q18.19-10.56,36.44-21c6.39-3.66,11.27-2.35,14.94,3.94,2.44,4.18,4.87,8.35,7.24,12.57,3.2,5.71,1.8,10.86-3.89,14.17C363.57,62.41,351.76,69,340.14,76,335.5,78.75,331.1,79.85,325.93,76.29Z"/><path class="cls-3" d="M139.71,321a31.77,31.77,0,1,1-31.87-31.73A31.59,31.59,0,0,1,139.71,321ZM108.1,337.1A16,16,0,1,0,91.91,321,16.06,16.06,0,0,0,108.1,337.1Z"/><path class="cls-4" d="M230.93,352.88a31.83,31.83,0,1,1,31.94-31.68A31.78,31.78,0,0,1,230.93,352.88ZM247.05,321a16,16,0,1,0-16.14,16.08A16.07,16.07,0,0,0,247.05,321Z"/><path class="cls-5" d="M0,83.85C2.42,59.91,12.38,40.07,29.92,23.44,36.64,31.52,45.15,36.86,54,40.8c-1.72,14.48-3.39,28.59-5.1,43.05Z"/><path class="cls-6" d="M53.68,142.32,28.91,159.83C12.38,144.3,2.52,124.45,0,100.51H48.92C50.54,114.77,52.15,128.88,53.68,142.32Z"/><path class="cls-7" d="M122.35,47.43q2,17.72,4.05,36.48H65.26c1.41-12.6,2.8-25.07,4.16-37.19,9.34.84,17.81,2.1,26.31,2.22S112.78,48,122.35,47.43Z"/><path class="cls-8" d="M122,137.43a125.07,125.07,0,0,0-52.61.82c-1.4-12.59-2.77-25-4.19-37.71H125.8C125.85,112.8,124.19,124.9,122,137.43Z"/><path class="cls-9" d="M161.11,29.21C174.84,44.07,183,62.3,185.3,83.76a28.4,28.4,0,0,1-3.09.37c-12.32,0-24.65,0-37,.06-2.51,0-3.14-.78-3.39-3.26-1.2-12-2.72-24-4-36-.11-1.1.41-2.89,1.22-3.36C146.21,37.41,153.49,33.45,161.11,29.21Z"/><path class="cls-10" d="M161,155.15l-22.89-13.63q2.24-20.1,4.55-41h42.58A92.39,92.39,0,0,1,161,155.15Z"/><path class="cls-11" d="M73.82,153.85a106.26,106.26,0,0,1,44.2-.71c-3.34,10.32-6.87,20-14.21,27.74-5.44,5.7-10.43,5.73-15.87.08C80.71,173.47,77.23,164,73.82,153.85Z"/><path class="cls-12" d="M74.19,30.38c2.75-8.46,5.86-16.16,11-22.88a28.54,28.54,0,0,1,4.75-4.95c4-3.28,8-3.52,11.78,0A43.45,43.45,0,0,1,110,13c3.13,5.62,5.41,11.71,8.23,18A107.16,107.16,0,0,1,74.19,30.38Z"/><path class="cls-13" d="M42.83,12.86,68,1.74l.39.84c-3.26,7.37-6.51,14.74-10.16,23l-15.59-11Z"/><path class="cls-14" d="M42.69,169.59l15.23-10.91c3.48,8.06,6.64,15.42,10.32,23.95L42.8,171.41C42.76,170.8,42.73,170.19,42.69,169.59Z"/><path class="cls-15" d="M147.89,18.32l-14.21,8.31-9-21.41.37-.85L148,16.65Z"/><path class="cls-16" d="M125.26,178.94c2.8-6.88,5.61-13.75,8.68-21.28l14.15,8.26.17,1.41-22.6,12.38Z"/></svg>