<svg id="Layer_1" data-name="Layer 1" xmlns="http://www.w3.org/2000/svg" xmlns:xlink="http://www.w3.org/1999/xlink" viewBox="0 0 449.44 352.88"><defs><style>.cls-1{fill:url(#linear-gradient);}.cls-2{fill:url(#linear-gradient-2);}.cls-3{fill:url(#linear-gradient-3);}.cls-4{fill:url(#linear-gradient-4);}</style><linearGradient id="linear-gradient" x1="62.33" y1="131.38" x2="324.92" y2="131.38" gradientUnits="userSpaceOnUse"><stop offset="0" stop-color="#fe0068"/><stop offset="1" stop-color="#9d04c7"/></linearGradient><linearGradient id="linear-gradient-2" x1="0" y1="173.45" x2="264.25" y2="173.45" xlink:href="#linear-gradient"/><linearGradient id="linear-gradient-3" x1="304.77" y1="285.9" x2="449.44" y2="285.9" xlink:href="#linear-gradient"/><linearGradient id="linear-gradient-4" x1="288.19" y1="223.55" x2="319.7" y2="223.55" xlink:href="#linear-gradient"/></defs><path class="cls-1" d="M305.79,63.43A130.75,130.75,0,0,0,119.53,23.11C60.45,63.43,51.14,135.91,73.44,183.37c9-7,17.88-14,26.88-20.91,1.45-1.11,1.42-2.07,1.09-3.66-1.45-7.19-3.31-14.37-3.89-21.65a88.44,88.44,0,0,1,4-33.42C108.25,82,121,64.65,139.87,52.05A96,96,0,0,1,243.51,49.9,95.82,95.82,0,0,1,287.26,151a96.17,96.17,0,0,1-111.79,75.08A92.82,92.82,0,0,1,137,209.33l-3.94-2.9c-1,5.78-1.88,11.23-2.77,16.68-.61,3.7-1.48,4.48-5.15,4.23-6.2-.41-12.41-.89-18.61-1.33-.77,0-1.54,0-2.5,0,3,6.72,29.6,23.62,47.37,29.51,35.81,11.87,70.78,9.25,104.12-8.48C319.51,213,346.14,131,305.79,63.43Z"/><path class="cls-2" d="M106.11,221.81c5.26.57,10.56.88,15.85,1.21,3.05.19,3.58-.33,4.07-3.31q1.34-8.18,2.72-16.34c.48-2.77,1.37-3.5,4.22-3.41,5.22.16,10.45.35,15.66.59,3.4.16,6.6-.61,8.83-3.14,2.85-3.24,5.65-2.71,9.26-1.44,6.05,2.14,12.23,4.28,18.54,5.23,20,3,37.59-3,53.2-15.38A67,67,0,0,0,261.2,152a70.19,70.19,0,0,0,2-32.56,67.17,67.17,0,0,0-20-37.6c-17.44-17-38.31-23.51-62.29-19.31a65.25,65.25,0,0,0-29.18,13.33,79.73,79.73,0,0,0-18.2,19.59,61.35,61.35,0,0,0-9,25.11,81.13,81.13,0,0,0,.76,25.22A5.9,5.9,0,0,1,123,152q-23.17,18-46.25,36.21c-2.2,1.73-4.26,3.64-6.39,5.46a29,29,0,0,0-2.67,1.65c-4,3.11-8,6.29-12,9.41q-22,17.25-44.09,34.47a10.91,10.91,0,0,0-4,6.49C6,253,4.2,260.3,2.53,267.62c-.9,4-1.89,7.92-2.44,11.93-.47,3.34,1,4.79,4.29,5.21.83.11,1.68.08,2.53.11,9.37.25,18.74.53,28.12.75,3.12.07,6.24,0,9.56,0,.81-5.92,1.63-11.68,2.38-17.45.48-3.68,1.24-4.25,5-3.93q8,.71,16.08,1.21c2.74.17,3.51-.58,4-3.3q1.29-8,2.6-15.9c.59-3.49,1.5-4,5-3.7,5.5.52,11,.83,16.53,1.3,2.27.19,3.25-.88,3.43-3,.13-1.6.3-3.21.45-4.81q.55-5.84,1.1-11.66C102,222,103.67,221.54,106.11,221.81ZM214.66,91.72a24,24,0,0,1,23.57,23.7,23.47,23.47,0,0,1-23.3,23.3,23.13,23.13,0,0,1-23.55-23.41C191.41,102.3,201.9,91.66,214.66,91.72Z"/><path class="cls-3" d="M440.06,302c-6.85-6-13.71-12-20.54-18-11.39-10.06-22.71-20.2-34.14-30.22-10.11-8.85-20.3-17.6-30.49-26.35-5-4.33-10.85-6.35-17.47-5.14a4.26,4.26,0,0,1-4.18-1.31c-2.83-2.67-5-2.78-7.55.07q-9.88,11.22-19.37,22.8c-2.29,2.79-2,4.9.68,7.2a6,6,0,0,1,2.23,5.25,17.53,17.53,0,0,0,6,13.92c5.23,4.85,10.85,9.27,16.21,14q32.7,28.71,65.35,57.47a13.78,13.78,0,0,0,2.29,1.35c2.77,2.33,5.28,5.14,8.37,6.89,7.22,4.11,14.83,4.25,21.36-1.13a74.8,74.8,0,0,0,18.69-22.25C452,318,448.29,306.8,440.06,302Z"/><path class="cls-4" d="M318.38,217.42c2.33-3.16,1.49-6.69-1.77-9.32-3.44-2.79-7.19-3-9.7-.15-5.85,6.7-11.54,13.56-17.18,20.45-2,2.43-1.94,5.22-.47,8s3.71,4.21,7.19,4.82c1.56-.93,3.39-1.6,4.63-2.85,2.58-2.61,4.91-5.49,7.25-8.33C311.74,225.87,315.21,221.75,318.38,217.42Z"/></svg>