<svg id="Layer_1" data-name="Layer 1" xmlns="http://www.w3.org/2000/svg" xmlns:xlink="http://www.w3.org/1999/xlink" viewBox="0 0 314.77 314.37"><defs><style>.cls-1{fill:url(#linear-gradient);}.cls-2{fill:url(#linear-gradient-2);}.cls-3{fill:url(#linear-gradient-3);}.cls-4{fill:url(#linear-gradient-4);}.cls-5{fill:url(#linear-gradient-5);}.cls-6{fill:url(#linear-gradient-6);}.cls-7{fill:url(#linear-gradient-7);}.cls-8{fill:url(#linear-gradient-8);}.cls-9{fill:url(#linear-gradient-9);}</style><linearGradient id="linear-gradient" y1="186.57" x2="314.77" y2="186.57" gradientUnits="userSpaceOnUse"><stop offset="0" stop-color="#fe0068"/><stop offset="1" stop-color="#9d04c7"/></linearGradient><linearGradient id="linear-gradient-2" x1="191.67" y1="66.54" x2="314.52" y2="66.54" xlink:href="#linear-gradient"/><linearGradient id="linear-gradient-3" x1="66.35" y1="92.56" x2="178.15" y2="92.56" xlink:href="#linear-gradient"/><linearGradient id="linear-gradient-4" x1="101.02" y1="115.05" x2="178.74" y2="115.05" xlink:href="#linear-gradient"/><linearGradient id="linear-gradient-5" x1="135.89" y1="118.6" x2="178.74" y2="118.6" xlink:href="#linear-gradient"/><linearGradient id="linear-gradient-6" x1="135.94" y1="163.99" x2="150.55" y2="163.99" xlink:href="#linear-gradient"/><linearGradient id="linear-gradient-7" x1="101.32" y1="191.77" x2="115.97" y2="191.77" xlink:href="#linear-gradient"/><linearGradient id="linear-gradient-8" x1="66.44" y1="177.85" x2="80.81" y2="177.85" xlink:href="#linear-gradient"/><linearGradient id="linear-gradient-9" x1="244.14" y1="38.66" x2="258.58" y2="38.66" xlink:href="#linear-gradient"/></defs><path class="cls-1" d="M272.84,192.86v18.86h26.52c.11-1.92.29-3.71.3-5.51q0-33.09,0-66.17a30.87,30.87,0,0,1,.12-4.62c.6-3.79,2.78-6.18,6.71-6.47s6.56,1.62,7.6,5.36a22.64,22.64,0,0,1,.64,5.94q.06,58.31,0,116.62c0,9.88-2.39,12.22-12.4,12.22q-49.28,0-98.57,0H196.9v30.17h13.83c4.17,0,8.34-.1,12.5.06s7.22,2.87,7.54,6.66c.34,4.12-2.1,7.12-6.67,8a27.64,27.64,0,0,1-5.06.4q-61.54,0-123.1,0a30.65,30.65,0,0,1-5.07-.36c-4.64-.8-7.11-3.68-6.88-7.8s3.22-6.79,7.8-6.88c6.94-.13,13.89,0,20.83-.07,1.65,0,3.31-.16,5.35-.28V269.6c-2.16-.17-4.24-.48-6.31-.48q-49.06,0-98.11,0a46.1,46.1,0,0,1-6-.23C3.39,268.31.81,266,.29,261.7A46.51,46.51,0,0,1,0,256.16Q0,163.84,0,71.51c0-.92,0-1.85,0-2.78.32-7,3-9.77,10-9.88,9.1-.13,18.2,0,27.31,0q12.5,0,25,0a36.13,36.13,0,0,1,4.16.12c4.81.57,7.82,3.59,7.73,7.65-.11,4.26-3.39,7.27-8.46,7.3-14.81.09-29.62,0-44.42.05H15.52V211.74H222.46V192.9c-1.69-.18-3.45-.39-5.22-.53-5.19-.42-8.05-3-8.15-8.2q-.26-13.18,0-26.38c.12-5.77,3.24-8.35,9.88-8.37,16.66-.07,33.32,0,50,0,2.78,0,5.56,0,8.33,0,6.31.16,9.13,2.52,9.43,8.9.36,7.85.33,15.73.14,23.59s-2.57,10.12-10.29,10.5C275.5,192.45,274.45,192.65,272.84,192.86Zm26.49,35H15.6v25.67H299.33ZM133.92,298.8h46.77V269.53H133.92Zm90.64-122.11h47V165h-47Zm13.94,16.06v19h19.11v-19Z"/><path class="cls-2" d="M278.87,66.63l19.07,16C302,86,306,89.28,310,92.65c4.93,4.16,5.38,7.82,1.71,13.26-18.08,26.81-57.65,35.39-86.23,18.42C204.66,112,192.78,93.41,191.74,69.19,190.1,31,220.39,2.54,252.29.23c24-1.75,43.76,6.6,58.84,25.51,4.93,6.18,4.55,9.68-1.61,14.91-8.45,7.19-17,14.23-25.54,21.36C282.36,63.37,280.84,64.85,278.87,66.63ZM296.1,101c-1.83-1.68-3.45-3.28-5.19-4.75-9.06-7.66-18.22-15.21-27.21-23-5.56-4.79-5.4-9.17.16-13.84,9.67-8.13,19.34-16.28,29.07-24.34a19.44,19.44,0,0,1,3.79-2c-10.94-15.34-34.63-21.91-53.53-16C222,23.66,207,43.42,206.71,65c-.29,23.37,13.58,43.17,35.38,50.52C261,121.87,285.21,115.59,296.1,101Z"/><path class="cls-3" d="M66.39,138.66c-.78-31.94,9.22-58.59,31-80.23,20-19.84,44.21-30.33,72.62-30.56,3.55,0,6.81.81,7.81,4.36.61,2.2.44,5.58-.89,7.14-1.53,1.79-4.68,2.86-7.2,3-16.45,1-32,4.84-45.89,14-26.66,17.54-41.31,42.07-42.25,74.3-.17,5.85.06,11.71-.12,17.57s-3,9.07-7.7,9S66.46,154,66.4,148C66.36,144.5,66.39,141,66.39,138.66Z"/><path class="cls-4" d="M101.24,145c-.37-13.42-.91-27,4.22-39.72,10.76-26.81,30.4-42.34,59.26-45.86a42.8,42.8,0,0,1,5.51-.53c4.76.06,8.37,3.31,8.5,7.45s-3.23,7.33-8.24,7.55c-11.88.53-22.73,4-32.23,11.23-14.42,11-21.63,25.84-22.17,43.82-.33,11.26,0,22.53-.09,33.79,0,4.82-2.42,7.84-6.28,8.36-4.48.59-8-2-8.38-7.14C100.92,157.68,101.24,151.34,101.24,145Z"/><path class="cls-5" d="M135.92,131.17c0-19.57,11.82-33.81,30.65-37a21.27,21.27,0,0,1,4.14-.31c4.43.14,7.68,2.94,8,6.81s-2.48,7.16-6.8,8.06c-2.7.56-5.61.55-8.1,1.58-7.8,3.23-12.14,9.2-12.68,17.73-.15,2.45.05,4.93-.12,7.39-.35,5-3.43,8.05-7.84,7.94-4.13-.11-6.91-3.16-7.23-8C135.85,134,135.92,132.56,135.92,131.17Z"/><path class="cls-6" d="M150.55,164a7,7,0,0,1-7.38,7.12,7.37,7.37,0,0,1-7.23-7.41,7,7,0,0,1,7.13-6.92C147.27,157,150.58,160.17,150.55,164Z"/><path class="cls-7" d="M115.94,192.46a7.34,7.34,0,1,1-14.59-1.66,6.77,6.77,0,0,1,7.72-6.18C113.37,185.16,116.32,188.53,115.94,192.46Z"/><path class="cls-8" d="M73.55,170.65c3.83.07,7.22,3.31,7.26,6.92a7.18,7.18,0,0,1-7.1,7.49,7.42,7.42,0,0,1-7.27-7.43A7.05,7.05,0,0,1,73.55,170.65Z"/><path class="cls-9" d="M258.58,38.78a7.22,7.22,0,0,1-14.44-.05,7.22,7.22,0,1,1,14.44.05Z"/></svg>