<svg id="Layer_1" data-name="Layer 1" xmlns="http://www.w3.org/2000/svg" xmlns:xlink="http://www.w3.org/1999/xlink" viewBox="0 0 314.77 275.02"><defs><style>.cls-1{fill:url(#linear-gradient);}.cls-2{fill:url(#linear-gradient-2);}.cls-3{fill:url(#linear-gradient-3);}.cls-4{fill:url(#linear-gradient-4);}.cls-5{fill:url(#linear-gradient-5);}.cls-6{fill:url(#linear-gradient-6);}.cls-7{fill:url(#linear-gradient-7);}.cls-8{fill:url(#linear-gradient-8);}.cls-9{fill:url(#linear-gradient-9);}.cls-10{fill:url(#linear-gradient-10);}.cls-11{fill:url(#linear-gradient-11);}.cls-12{fill:url(#linear-gradient-12);}.cls-13{fill:url(#linear-gradient-13);}.cls-14{fill:url(#linear-gradient-14);}.cls-15{fill:url(#linear-gradient-15);}.cls-16{fill:url(#linear-gradient-16);}</style><linearGradient id="linear-gradient" y1="135.92" x2="223.3" y2="135.92" gradientUnits="userSpaceOnUse"><stop offset="0" stop-color="#fe0068"/><stop offset="1" stop-color="#9d04c7"/></linearGradient><linearGradient id="linear-gradient-2" x1="80.16" y1="84.92" x2="303.45" y2="84.92" xlink:href="#linear-gradient"/><linearGradient id="linear-gradient-3" x1="117.92" y1="176.34" x2="314.77" y2="176.34" xlink:href="#linear-gradient"/><linearGradient id="linear-gradient-4" x1="37.07" y1="243.45" x2="256.16" y2="243.45" xlink:href="#linear-gradient"/><linearGradient id="linear-gradient-5" x1="186.5" y1="133.72" x2="253.06" y2="133.72" xlink:href="#linear-gradient"/><linearGradient id="linear-gradient-6" x1="154.92" y1="133.72" x2="176.56" y2="133.72" xlink:href="#linear-gradient"/><linearGradient id="linear-gradient-7" x1="186.5" y1="158.21" x2="256.52" y2="158.21" xlink:href="#linear-gradient"/><linearGradient id="linear-gradient-8" x1="154.92" y1="158.21" x2="176.56" y2="158.21" xlink:href="#linear-gradient"/><linearGradient id="linear-gradient-9" x1="186.5" y1="182.7" x2="253.06" y2="182.7" xlink:href="#linear-gradient"/><linearGradient id="linear-gradient-10" x1="154.92" y1="182.7" x2="176.56" y2="182.7" xlink:href="#linear-gradient"/><linearGradient id="linear-gradient-11" x1="90.89" y1="141.64" x2="110.24" y2="141.64" xlink:href="#linear-gradient"/><linearGradient id="linear-gradient-12" x1="90.89" y1="163.62" x2="110.24" y2="163.62" xlink:href="#linear-gradient"/><linearGradient id="linear-gradient-13" x1="90.89" y1="185.6" x2="110.24" y2="185.6" xlink:href="#linear-gradient"/><linearGradient id="linear-gradient-14" x1="92.05" y1="107.32" x2="125.2" y2="107.32" xlink:href="#linear-gradient"/><linearGradient id="linear-gradient-15" x1="92.05" y1="119.93" x2="123.82" y2="119.93" xlink:href="#linear-gradient"/><linearGradient id="linear-gradient-16" x1="27.08" y1="119.93" x2="73.85" y2="119.93" xlink:href="#linear-gradient"/></defs><path class="cls-1" d="M10.36,85.48V210.64H14q53.09,0,106.17,0a4.86,4.86,0,0,1,4.59,2.24c1.82,2.62,4,5,6.25,7.83-1.1.08-1.9.18-2.7.18H6.68c-4.9,0-6.68-1.79-6.68-6.71V57.8C0,52.69,1.7,51,6.84,51H216.55c5.24,0,6.74,1.54,6.75,6.8,0,3.79,0,7.58,0,11.37a3.31,3.31,0,0,1-.17.65c-4.64-.82-9.25-1.89-13.92-2.43-22.86-2.64-43.82,2.56-62.7,15.73a12.6,12.6,0,0,1-7.76,2.41q-62.28-.11-124.55,0ZM33.82,62.41a5.77,5.77,0,1,0,5.86,5.67A5.82,5.82,0,0,0,33.82,62.41Zm-12,5.87a5.85,5.85,0,0,0-5.7-5.85,5.89,5.89,0,0,0-5.77,5.78,6,6,0,0,0,5.57,5.72A5.87,5.87,0,0,0,21.82,68.28Zm35.82-.13a5.93,5.93,0,0,0-5.77-5.73,5.75,5.75,0,0,0,0,11.5A5.93,5.93,0,0,0,57.64,68.15Z"/><path class="cls-2" d="M293.15,34.72H90.45c-.12,1.82-.22,3.44-.33,5.21H80.34c-.06-.92-.17-1.77-.17-2.62,0-10.21,0-20.42,0-30.62,0-5,1.7-6.68,6.65-6.68h210c5,0,6.66,1.62,6.66,6.64q0,78.3,0,156.61c0,5-1.62,6.56-6.68,6.59-2.4,0-4.8,0-7.42,0,.22-3.5.41-6.57.62-9.82l3.19-.55Zm-179-11.84a5.72,5.72,0,0,0,5.69-5.8,5.74,5.74,0,0,0-11.48.09A5.79,5.79,0,0,0,114.15,22.88Zm-18-11.41a5.82,5.82,0,0,0-5.63,5.88,5.72,5.72,0,0,0,5.65,5.53,5.79,5.79,0,0,0,5.81-5.7A5.88,5.88,0,0,0,96.13,11.47Zm35.94,11.42a5.68,5.68,0,0,0,5.63-5.83,5.69,5.69,0,0,0-11.38.14A5.65,5.65,0,0,0,132.07,22.89Z"/><path class="cls-3" d="M245.53,223.63c-40.58,28.63-88.8,13.29-111.31-16.2-22.88-30-21.66-73.93,3.55-102.19C164.2,75.62,207.15,69,240.58,89.52a80.12,80.12,0,0,1,37.94,75.66c-1.22,15.14-6.68,28.78-15.87,41.41,1.67.31,2.89.28,3.86.76,2.66,1.33,5.66,2.4,7.73,4.41,11.92,11.57,23.63,23.36,35.36,35.13,4.72,4.73,6.36,10.44,4.29,16.85s-6.56,10-13.07,11.05a14.7,14.7,0,0,1-13.15-4C275.33,258.63,263,246.51,251,234,248.43,231.36,247.36,227.23,245.53,223.63ZM198.71,89.48c-36.43-.52-69.08,29.14-69.32,69-.22,37.63,30.69,68.47,68.37,68.61a69.09,69.09,0,0,0,69.46-69.44C267.31,120.28,236.41,89.54,198.71,89.48Z"/><path class="cls-4" d="M37.08,231.78h10c0,2.87,0,5.65,0,8.42,0,5.37-.64,4.72,4.58,4.72q53.51,0,107,0a65.17,65.17,0,0,1,17.49,2.18,82.92,82.92,0,0,0,43.52.08c6.39-1.71,12.73-2,19.23-2.32,5.19-.24,9.16,1,12.29,5.2a52.08,52.08,0,0,0,4.94,4.92c-1.58.08-2.51.17-3.43.17q-104.23,0-208.46-.06c-5.92,0-7.14-1.24-7.18-7.22C37.05,242.59,37.08,237.35,37.08,231.78Z"/><path class="cls-5" d="M189.6,130.62h63.46a0,0,0,0,1,0,0v6.2a0,0,0,0,1,0,0H189.6a3.1,3.1,0,0,1-3.1-3.1v0A3.1,3.1,0,0,1,189.6,130.62Z"/><path class="cls-6" d="M176.56,144.54H154.92V122.9h21.64Zm-19.3-2.34h17v-17h-17Z"/><path class="cls-7" d="M189.6,155.11h66.91a0,0,0,0,1,0,0v6.2a0,0,0,0,1,0,0H189.6a3.1,3.1,0,0,1-3.1-3.1v0A3.1,3.1,0,0,1,189.6,155.11Z"/><path class="cls-8" d="M176.56,169H154.92V147.39h21.64Zm-19.3-2.34h17v-17h-17Z"/><path class="cls-9" d="M250.22,185.8H189.6a3.1,3.1,0,0,1-3.1-3.1h0a3.1,3.1,0,0,1,3.1-3.1h63.46Z"/><path class="cls-10" d="M176.56,193.52H154.92V171.88h21.64Zm-19.3-2.34h17v-17h-17Z"/><path class="cls-11" d="M110.24,151.31H90.89V132h19.35Zm-17-2.33H107.9V134.3H93.22Z"/><path class="cls-12" d="M110.24,173.29H90.89V153.94h19.35Zm-17-2.33H107.9V156.28H93.22Z"/><path class="cls-13" d="M110.24,195.27H90.89V175.92h19.35Zm-17-2.33H107.9V178.26H93.22Z"/><path class="cls-14" d="M94.66,104.72H125.2a0,0,0,0,1,0,0v5.21a0,0,0,0,1,0,0H94.66a2.61,2.61,0,0,1-2.61-2.61v0A2.61,2.61,0,0,1,94.66,104.72Z"/><path class="cls-15" d="M119.94,122.54H94.66a2.61,2.61,0,0,1-2.61-2.61h0a2.6,2.6,0,0,1,2.61-2.6h29.16Z"/><path class="cls-16" d="M66.89,99.05h-11V109.8H45V99.05H34a7,7,0,0,0-7,7v27.84a7,7,0,0,0,7,7H66.89a7,7,0,0,0,7-7V106A7,7,0,0,0,66.89,99.05Zm-4.71,18.42,2.93,3H63.9v9.8H60.46v-9.8H59.25Zm-7.92,0,2.92,3H56v9.8H52.54v-9.8H51.33Zm14,16.63h-20V132h20Z"/></svg>