<svg id="Layer_1" data-name="Layer 1" xmlns="http://www.w3.org/2000/svg" xmlns:xlink="http://www.w3.org/1999/xlink" viewBox="0 0 274.89 275.02"><defs><style>.cls-1{fill:url(#linear-gradient);}.cls-2{fill:url(#linear-gradient-2);}.cls-3{fill:url(#linear-gradient-3);}.cls-4{fill:url(#linear-gradient-4);}.cls-5{fill:url(#linear-gradient-5);}.cls-6{fill:url(#linear-gradient-6);}.cls-7{fill:url(#linear-gradient-7);}.cls-8{fill:url(#linear-gradient-8);}</style><linearGradient id="linear-gradient" y1="137.51" x2="274.89" y2="137.51" gradientUnits="userSpaceOnUse"><stop offset="0" stop-color="#fe0068"/><stop offset="1" stop-color="#9d04c7"/></linearGradient><linearGradient id="linear-gradient-2" x1="97.18" y1="112.8" x2="183.2" y2="112.8" xlink:href="#linear-gradient"/><linearGradient id="linear-gradient-3" x1="91.63" y1="82.55" x2="128.27" y2="82.55" xlink:href="#linear-gradient"/><linearGradient id="linear-gradient-4" x1="100.61" y1="169.62" x2="174.2" y2="169.62" xlink:href="#linear-gradient"/><linearGradient id="linear-gradient-5" x1="109.87" y1="22.96" x2="155.75" y2="22.96" xlink:href="#linear-gradient"/><linearGradient id="linear-gradient-6" x1="109.87" y1="41.29" x2="155.75" y2="41.29" xlink:href="#linear-gradient"/><linearGradient id="linear-gradient-7" x1="82.37" y1="22.97" x2="100.86" y2="22.97" xlink:href="#linear-gradient"/><linearGradient id="linear-gradient-8" x1="82.37" y1="41.28" x2="100.86" y2="41.28" xlink:href="#linear-gradient"/></defs><path class="cls-1" d="M210.73,101.28h3.43c9.35,0,18.7-.06,28.06,0,8.43.07,14.34,6.1,14.34,14.55q0,59.42,0,118.84v3.64h12.21c4.74,0,6.3,1.67,6.09,6.46A31.82,31.82,0,0,1,243.1,275q-80.46,0-160.91,0c-17,0-34,.06-51,0A31.8,31.8,0,0,1,0,244.82c-.21-4.81,1.33-6.47,6.07-6.48H18.32v-3.63q0-59,0-118c0-9.74,5.69-15.43,15.48-15.44q13.46,0,26.92,0h3.41V97.66q0-45.67,0-91.35c0-4.86,1.41-6.26,6.31-6.26q48.68,0,97.34,0a8.15,8.15,0,0,1,6.32,2.62q16.9,17.1,34,34a8.5,8.5,0,0,1,2.69,6.59c-.08,18.14-.05,36.27-.05,54.41Zm-9.37,82V45.87c-10.42,0-20.62,0-30.83,0-3.91,0-5.55-1.65-5.56-5.59,0-8.59,0-17.18,0-25.77V9.4H73.52V183.28Zm9.37-54.78v3.29q0,27.19,0,54.41c0,4.88-1.42,6.31-6.28,6.31h-134c-4.9,0-6.3-1.4-6.3-6.27q0-27.35,0-54.7V128.6H46v91.21h183V128.5ZM27.48,238.13H247.41V116.24c0-.38,0-.76,0-1.14-.24-2.7-1.87-4.56-4.56-4.58-10.49-.06-21,0-31.48,0-.15,0-.29.21-.42.3v8.32c7.35,0,14.5,0,21.64,0,4.09,0,5.67,1.61,5.67,5.76q0,49.24,0,98.51c0,4.09-1.62,5.7-5.73,5.7q-95.05,0-190.12,0c-4.13,0-5.73-1.58-5.74-5.68q0-12,0-24.06,0-37.22,0-74.45c0-4.16,1.57-5.75,5.64-5.78,2.2,0,4.39,0,6.59,0H64v-8.74H34.33c-5.55,0-6.85,1.33-6.85,7V238.13Zm80.8,9.53h-97a21,21,0,0,0,20.8,18.17H172.91c23.47,0,46.94,0,70.41,0,10.14,0,19.77-8.79,20.13-18.19h-96.8c-.06.66-.13,1.21-.16,1.76-.42,8-5,12.41-13,12.42-11,0-21.95,0-32.92,0-6.74,0-11.55-4.51-12.14-11.21C108.36,249.65,108.34,248.71,108.28,247.66ZM193.54,36.57,174.29,17.29V36.57ZM117.73,247.63c-.28,4.4.26,5,4.28,5q15.58,0,31.15,0c3.83,0,4.55-.94,3.77-5Z"/><path class="cls-2" d="M135.57,108.24V91.57c0-5.34,0-10.69,0-16,0-4.34,1.58-5.85,5.88-5.75,21.86.49,39.31,17.28,41.56,40,2,20.27-12.71,40.32-33,44.94A43,43,0,0,1,97.2,114.56c-.19-4.83,1.25-6.32,6.17-6.32Zm-27.81,9.17c2.94,19,17.84,31.05,35.56,29.17,18.14-1.92,31.83-17.8,30.64-35.53-1.11-16.35-14.71-30.6-29.22-30.36v3.1c0,9.16,0,18.32,0,27.47,0,4.62-1.57,6.14-6.24,6.15-5.53,0-11.06,0-16.59,0Z"/><path class="cls-3" d="M109.67,100.87c-4.2,0-8.4,0-12.6,0-3.75,0-5.45-1.75-5.44-5.4,0-16.48,14.7-31.21,31.15-31.24,3.65,0,5.45,1.71,5.46,5.41q.06,12.89,0,25.78c0,3.76-1.68,5.42-5.4,5.45C118.45,100.9,114.06,100.87,109.67,100.87ZM103,91.55h15.87V75.63C111.16,76.67,104.06,83.81,103,91.55Z"/><path class="cls-4" d="M137.23,174.19H106.34c-3.66,0-5.68-1.6-5.73-4.49s2-4.67,5.56-4.67h62.35c4.1,0,6.56,2.78,5.38,6.05-.87,2.39-2.77,3.14-5.21,3.13C158.2,174.16,147.72,174.19,137.23,174.19Z"/><path class="cls-5" d="M132.85,18.37c5.71,0,11.43,0,17.14,0,3.64,0,5.71,1.64,5.76,4.5s-2,4.65-5.6,4.65q-17.43,0-34.85,0c-3.44,0-5.38-1.65-5.43-4.49s1.91-4.65,5.55-4.66C121.23,18.36,127,18.37,132.85,18.37Z"/><path class="cls-6" d="M133,36.7c5.71,0,11.43,0,17.14,0,3.55,0,5.66,1.77,5.62,4.64s-2.11,4.51-5.73,4.52q-17.29,0-34.58,0c-3.65,0-5.6-1.66-5.57-4.63s2-4.51,5.69-4.52C121.37,36.69,127.18,36.7,133,36.7Z"/><path class="cls-7" d="M91.87,18.4c1.61,0,3.24-.12,4.84,0A4.42,4.42,0,0,1,100.86,23a4.35,4.35,0,0,1-4.23,4.49c-3.32.14-6.66.13-10,0a4.34,4.34,0,0,1-4.28-4.43,4.47,4.47,0,0,1,4.36-4.67,5.42,5.42,0,0,1,.57,0h4.57Z"/><path class="cls-8" d="M91.4,45.85c-1.62,0-3.24.11-4.85,0a4.4,4.4,0,0,1-4.18-4.54,4.33,4.33,0,0,1,4.18-4.53c3.42-.15,6.85-.16,10.26,0a4.3,4.3,0,0,1,4,4.65,4.24,4.24,0,0,1-4,4.37,46.47,46.47,0,0,1-5.41,0Z"/></svg>