<?xml version="1.0" encoding="utf-8"?>
<!-- Generator: Adobe Illustrator 24.2.3, SVG Export Plug-In . SVG Version: 6.00 Build 0)  -->
<svg version="1.1" id="Layer_1" xmlns="http://www.w3.org/2000/svg" xmlns:xlink="http://www.w3.org/1999/xlink" x="0px" y="0px"
	 viewBox="0 0 338.5 275" style="enable-background:new 0 0 338.5 275;" xml:space="preserve">
<style type="text/css">
	.st0{fill:#FFFFFF;}
</style>
<path class="st0" d="M193.2,237.9v26.4h2.3c6.5,0,13,0,19.5,0c3.4,0,5.7,2,5.8,5.1s-2,5.3-5.4,5.6c-0.6,0.1-1.2,0.1-1.7,0.1h-89.2
	c-0.4,0-0.9,0-1.3,0c-3.5-0.3-5.8-2.7-5.6-5.6c0.2-3.1,2.5-5.1,6.1-5.1h21.6v-26.4h-2.7c-43.6,0-87.2-0.1-130.8,0.1
	C4.7,238,0,232.8,0,226.1c0.2-54.3,0.1-108.6,0.1-162.9c0-17.3,0-34.7,0-52C0.1,4.3,4.4,0,11.5,0h307.3c3,0,5.9,0,8.9,0
	c5.8-0.1,10.7,4.5,10.8,10.4c0,0.1,0,0.2,0,0.3c0.1,3.9,0,7.8,0,11.7c0,61.1,0,122.2,0,183.2c0,7,0,14,0,21s-4.4,11.3-11.4,11.3
	L193.2,237.9L193.2,237.9z M10.9,10.8v168.9c6.7,0,13.1,0,19.5-0.1c0.8-0.2,1.6-0.7,2-1.5c16.3-26.6,32.6-53.3,48.8-79.9
	c0.4-0.8,0.4-1.7,0.1-2.5c-4.7-9.1-1.1-20.3,8-25s20.3-1.1,25,8c1.9,3.7,2.5,8,1.7,12.1c-0.3,1,0,2.1,0.9,2.8
	c7,6.6,14,13.1,20.8,19.8c2.1,2,3.8,3.4,6.5,1.3c0.4-0.2,0.9-0.4,1.4-0.5c4.1-1.2,8.5-0.9,12.5,0.8L173,93.4l8.7,6.2
	c-0.5,0.8-1,1.5-1.5,2.3c-4.3,6.3-8.6,12.5-12.9,18.7c-0.7,0.8-0.8,2-0.3,2.9c1,2.1,1.7,4.3,2,6.6c0.9,7.7-2.1,13.8-8.6,17.8
	c-6.8,4.2-13.8,4-20.4-0.6c-6.4-4.5-9.2-10.9-7.4-18.5c0.9-3.9,0.1-6.2-2.9-8.2c-0.3-0.3-0.6-0.6-0.9-0.9l-19-18.1l-1.9,1.2
	c-4.6,3.1-10.5,3.9-15.7,2.1c-1.6-0.5-2.3-0.2-3.2,1.2c-14.6,24-29.2,47.9-43.9,71.8c-0.3,0.5-0.5,1.1-0.9,1.8h2
	c16.8,0,33.6-0.1,50.5-0.1c23.2,0,46.3,0,69.5,0.1c25.2,0,50.4,0,75.6,0c8.9,0,17.8,0,26.6,0c3.4,0,5.6,2.1,5.6,5.2
	s-2.4,5.4-6.2,5.4c-15.6,0-31.2-0.1-46.8-0.1c-13.7,0-27.4,0.1-41.1,0.1c-33.7,0-67.4,0-101.1-0.1c-21.7,0-43.5,0-65.2,0.1h-2.8
	v36.7h316.7v-36.6c-0.6,0-1-0.1-1.4-0.1c-8.1,0-16.2,0-24.3,0c-1.4,0-2.8-0.3-4.2-0.8c-2.5-1.5-3.3-4.7-1.9-7.2
	c1-1.6,2.7-2.6,4.6-2.6c8.2-0.1,16.3,0,24.5,0h2.6v-169H10.9z M182.3,238.1h-26.1v26.1h26.1V238.1z M150.8,140
	c4.3,0,7.8-3.5,7.8-7.9c0-4.3-3.5-7.8-7.9-7.8s-7.8,3.5-7.8,7.9C142.9,136.5,146.4,140,150.8,140z M105.8,87.2
	c0-4.4-3.5-7.9-7.9-7.9c-4.4,0-7.9,3.5-7.9,7.9c0,4.3,3.5,7.8,7.8,7.9c4.3,0.1,7.9-3.4,8-7.7C105.7,87.3,105.7,87.3,105.8,87.2
	L105.8,87.2z"/>
<path class="st0" d="M199.8,105.3V94.9c-11.9-2.1-21-8.2-27-18.7c-4.3-7.5-5.7-16.2-4.1-24.7c3.2-17.7,18.6-30.5,36.6-30.4
	c17.9,0,32.9,12.6,36.4,30.4c3.1,15.9-6.2,39.5-31.1,43.5c0,0.4-0.1,0.8-0.1,1.3c0,2.9,0,5.8,0,9c1.6,0,3.1,0,4.5,0
	c3.5,0.1,5.7,2.1,5.7,5.7c0,14,0.1,28,0,42c-0.3,8.6-7.5,15.3-16.1,15c-8.3-0.3-14.9-7.1-15-15.4c-0.1-13.7-0.1-27.4,0-41.1
	c0-4.2,2.1-6.1,6.4-6.1L199.8,105.3z M185.5,75.5c0.7-1.1,1.4-2.1,2.2-3.1c1.8-1.8,1.6-3.4,0.2-5.6c-3.9-6.3-3.1-14.5,1.6-20.5
	c4.7-5.9,12.4-8.4,19.6-6.4c7.1,1.9,12.3,7.9,13.2,15.2c0.3,3.1-0.2,6.3-0.3,9.8l6.6,5.1c6.2-10.8,2.5-25.5-8.3-33.2
	c-10.9-7.9-26-6.2-34.8,4.1C176.8,50.8,176.7,66.1,185.5,75.5z M200.3,116.2v1.9c0,11.3,0,22.5,0,33.8c0,3.4,2,5.7,4.9,5.8
	s4.9-2.4,4.9-5.9c0-11.1,0-22.2,0-33.4c0-0.7-0.1-1.4-0.1-2.2L200.3,116.2z M194,81.9c8.6,4.5,20.7,3,27.9-3.5
	c-2.1-1.6-4.2-3.3-6.3-4.8c-0.5-0.3-1.1-0.3-1.7,0c-4.3,2.6-9.5,3.4-14.4,2.2c-0.6-0.1-1.2,0.1-1.6,0.5
	C196.6,78.1,195.4,79.9,194,81.9z M196.3,57.7c-0.1,4.3,3.3,7.9,7.6,8c0,0,0.1,0,0.1,0c4.3,0.1,7.9-3.4,8-7.8c0.1-4.3-3.4-7.9-7.8-8
	l0,0C199.8,49.9,196.3,53.4,196.3,57.7L196.3,57.7z"/>
<path class="st0" d="M239,91.8c1.2-1.4,2.4-2.7,3.4-4s2.1-2.8,3.2-4.3l7,5.3c7.7-4.8,15.3-4.7,22.9,0.8l22-14.7
	c-1.4-0.3-2.3-0.4-3.2-0.7c-2.5-0.7-4.2-3.2-3.8-5.8c0.4-2.8,2.6-4.9,5.4-4.6c5.7,0.6,11.4,1.5,17.1,2.5c2.5,0.4,4.2,2.8,3.8,5.3
	c-0.7,5.6-1.5,11.2-2.4,16.7c-0.5,2.8-3.2,4.6-6,4c-0.1,0-0.1,0-0.2,0c-2.8-0.6-4.7-3.3-4.2-6.1c0.1-0.8,0.2-1.6,0.4-2.8
	c-1,0.6-1.6,1-2.3,1.4c-6.4,4.2-12.7,8.5-19.1,12.7c-1.1,0.6-1.6,1.8-1.2,3c1.9,9.9-4.5,19.5-14.4,21.6c-9.9,2.2-19.6-4.1-21.8-14
	c0,0,0,0,0,0c-0.6-3,0.1-6.3,0.1-9.4c0-0.8-0.2-1.5-0.7-2.1C243.1,94.9,241,93.3,239,91.8z M263.9,96.1c-4.3-0.1-8,3.2-8.1,7.6
	c-0.1,4.3,3.3,7.9,7.6,8.2c4.3,0.1,7.9-3.3,8.1-7.6C271.6,99.9,268.3,96.2,263.9,96.1C263.9,96.1,263.9,96.1,263.9,96.1L263.9,96.1z
	"/>
<path class="st0" d="M177.2,208.7c0,4.4-3.5,8-7.9,8.1c-4.4,0-8-3.5-8.1-7.9c0-4.4,3.5-8,7.9-8.1c0,0,0.1,0,0.1,0
	C173.6,200.8,177.2,204.4,177.2,208.7z"/>
</svg>
