<svg id="Layer_1" data-name="Layer 1" xmlns="http://www.w3.org/2000/svg" xmlns:xlink="http://www.w3.org/1999/xlink" viewBox="0 0 338.48 275.02"><defs><style>.cls-1{fill:url(#linear-gradient);}.cls-2{fill:url(#linear-gradient-2);}.cls-3{fill:url(#linear-gradient-3);}.cls-4{fill:url(#linear-gradient-4);}</style><linearGradient id="linear-gradient" y1="137.51" x2="338.48" y2="137.51" gradientUnits="userSpaceOnUse"><stop offset="0" stop-color="#fe0068"/><stop offset="1" stop-color="#9d04c7"/></linearGradient><linearGradient id="linear-gradient-2" x1="168.12" y1="94.66" x2="242.32" y2="94.66" xlink:href="#linear-gradient"/><linearGradient id="linear-gradient-3" x1="238.97" y1="93.09" x2="316.8" y2="93.09" xlink:href="#linear-gradient"/><linearGradient id="linear-gradient-4" x1="161.25" y1="208.81" x2="177.21" y2="208.81" xlink:href="#linear-gradient"/></defs><path class="cls-1" d="M193.2,237.91v26.35h2.28c6.5,0,13,0,19.49,0,3.39,0,5.7,2,5.83,5.08s-2,5.27-5.36,5.61a16.57,16.57,0,0,1-1.73.06H124.49c-.43,0-.87,0-1.3,0-3.47-.31-5.81-2.66-5.61-5.64.21-3.14,2.52-5.08,6.09-5.08h21.6V237.91H142.6c-43.6,0-87.2-.07-130.8.08C4.71,238,0,232.76,0,226.11.15,171.83.06,117.54.06,63.26q0-26,0-52C.1,4.32,4.43,0,11.47,0h307.3c3,0,5.92,0,8.87,0a10.58,10.58,0,0,1,10.78,10.65c.06,3.89,0,7.79,0,11.68q0,91.62.05,183.22c0,7,0,14-.05,21s-4.39,11.34-11.37,11.34H193.2ZM10.87,10.82V179.71c6.66,0,13.08,0,19.49-.06a3.17,3.17,0,0,0,2-1.49q24.48-39.93,48.85-79.94a3,3,0,0,0,.07-2.47,18.57,18.57,0,1,1,34.73-4.92,2.62,2.62,0,0,0,.88,2.8c7,6.58,14,13.11,20.85,19.85,2.05,2,3.77,3.36,6.47,1.33a4.57,4.57,0,0,1,1.42-.47,18.74,18.74,0,0,1,12.48.77l14.94-21.67,8.66,6.22c-.5.76-1,1.54-1.51,2.29-4.3,6.25-8.58,12.49-12.91,18.71a2.55,2.55,0,0,0-.28,2.89,23.14,23.14,0,0,1,2,6.55c.91,7.69-2.08,13.81-8.58,17.83-6.76,4.18-13.83,4-20.35-.59-6.37-4.46-9.22-10.94-7.43-18.49.92-3.91.15-6.17-2.87-8.21a7.79,7.79,0,0,1-.93-.89l-19-18.12L108,102.8a17.76,17.76,0,0,1-15.73,2.06c-1.62-.54-2.35-.23-3.21,1.19Q67.16,142,45.18,177.87c-.31.52-.55,1.08-.94,1.84h2c16.82,0,33.64-.07,50.46-.06q34.76,0,69.51.08,37.78,0,75.58,0c8.88,0,17.76,0,26.64,0,3.39,0,5.62,2.13,5.65,5.23s-2.42,5.43-6.19,5.42c-15.59,0-31.18-.07-46.78-.06-13.71,0-27.42.11-41.13.1q-50.56,0-101.14-.1c-21.72,0-43.45,0-65.18.07H10.83v36.68h316.7V190.5c-.56,0-1-.09-1.41-.09-8.08,0-16.17,0-24.25,0a10.26,10.26,0,0,1-4.16-.82,5.27,5.27,0,0,1,2.72-9.81c8.16-.05,16.31,0,24.47,0h2.6V10.82ZM182.28,238.08h-26.1v26.06h26.1ZM150.75,140a7.83,7.83,0,1,0-.06-15.66,7.83,7.83,0,1,0,.06,15.66Zm-45-52.78a7.88,7.88,0,1,0-8,7.87A7.86,7.86,0,0,0,105.72,87.22Z"/><path class="cls-2" d="M199.8,105.35V94.9c-11.85-2.11-21-8.16-27-18.68a35.86,35.86,0,0,1-4.09-24.67,36.86,36.86,0,0,1,36.58-30.39c17.93,0,32.89,12.64,36.4,30.38,3.13,15.88-6.24,39.52-31.09,43.52,0,.41-.08.83-.08,1.26,0,2.88,0,5.77,0,9,1.58,0,3.05,0,4.53,0,3.54.07,5.69,2.12,5.71,5.67,0,14,.12,28,0,42a15.56,15.56,0,0,1-31.11-.39c-.12-13.71-.07-27.43,0-41.14,0-4.18,2.11-6.12,6.36-6.13ZM185.46,75.47a28.05,28.05,0,0,1,2.22-3.14c1.76-1.85,1.58-3.38.23-5.58-3.86-6.31-3.06-14.5,1.59-20.49a18.66,18.66,0,0,1,19.61-6.36,18,18,0,0,1,13.21,15.24c.3,3.09-.19,6.25-.34,9.79L228.62,70c6.23-10.83,2.48-25.45-8.33-33.22a25.75,25.75,0,0,0-34.78,4.09C176.78,50.82,176.68,66.06,185.46,75.47Zm14.85,40.68v1.91q0,16.89,0,33.78c0,3.39,2,5.74,4.87,5.76s4.94-2.36,4.95-5.89q0-16.68,0-33.36c0-.7-.06-1.4-.09-2.2ZM194,81.9c8.63,4.54,20.67,3,27.85-3.46-2.12-1.64-4.18-3.3-6.33-4.85a1.86,1.86,0,0,0-1.66,0,19.46,19.46,0,0,1-14.36,2.24,1.85,1.85,0,0,0-1.59.47C196.58,78.06,195.38,79.92,194,81.9Zm2.25-24.23a7.8,7.8,0,0,0,7.69,8,7.87,7.87,0,0,0,.22-15.74A7.83,7.83,0,0,0,196.27,57.67Z"/><path class="cls-3" d="M239,91.75c1.21-1.41,2.37-2.69,3.45-4s2.06-2.76,3.2-4.29l7,5.35c7.68-4.82,15.3-4.68,22.92.78l22-14.71c-1.36-.3-2.31-.45-3.22-.72a5.29,5.29,0,0,1-3.84-5.78c.44-2.79,2.61-4.91,5.37-4.59,5.72.65,11.43,1.5,17.1,2.5a4.67,4.67,0,0,1,3.81,5.29c-.66,5.58-1.45,11.16-2.42,16.69a5.13,5.13,0,0,1-6.21,4,5.37,5.37,0,0,1-4.21-6.13c.1-.77.22-1.55.39-2.8-1,.62-1.64,1-2.26,1.42C295.69,89,289.37,93.26,283,97.44a2.49,2.49,0,0,0-1.2,3,18.5,18.5,0,0,1-14.36,21.62,18.31,18.31,0,0,1-21.79-14c-.64-3,.11-6.25.13-9.39a3.09,3.09,0,0,0-.67-2.09C243.12,94.88,241,93.35,239,91.75Zm24.88,4.3a7.91,7.91,0,0,0-8.15,7.56,8.07,8.07,0,0,0,7.61,8.16,7.91,7.91,0,0,0,8.09-7.62A7.78,7.78,0,0,0,263.85,96.05Z"/><path class="cls-4" d="M177.21,208.74a8,8,0,1,1-8-7.92A8,8,0,0,1,177.21,208.74Z"/></svg>