<svg version="1.1" xmlns="http://www.w3.org/2000/svg" x="0" y="0" viewBox="-60 -52.5 150 125" xml:space="preserve"><g fill="#f5235f"><path d="M67.052-7.176c-.081-.754-.375-2.303-.375-2.303a1.99 1.99 0 0 0-1.952-1.694h-5.364v-38.311a2.016 2.016 0 0 0-2.016-2.016H37.181a2.016 2.016 0 0 0-2.016 2.016v38.311h-8.066v-26.213a3.867 3.867 0 0 0-.202-.901l-6.049-12.098a2.101 2.101 0 0 0-3.61 0L11.19-38.287a3.945 3.945 0 0 0-.222.901v26.213H-3.147v-20.164h2.016v14.115a2.016 2.016 0 1 0 4.032 0v-16.131a2.016 2.016 0 0 0-2.016-2.016H-1.13v-10.082A6.049 6.049 0 0 0-7.179-51.5h-4.033a6.049 6.049 0 0 0-6.049 6.049v12.098c0 1.114.903 2.016 2.016 2.016v20.164h-11.413a.869.869 0 0 0-.331.05c-.84.13-1.505.777-1.657 1.613a48.51 48.51 0 0 0-.714 7.511 5.517 5.517 0 0 1-.161 1.286l-7.844 31.395a2.016 2.016 0 0 0 1.955 2.504h10.082v14.115a6.049 6.049 0 0 0 6.049 6.049h14.115c1.114 0 2.016.903 2.016 2.016v14.115c0 1.114.903 2.016 2.016 2.016h40.328a2.016 2.016 0 0 0 2.016-2.016v-19.7a14.113 14.113 0 0 1 5.91-11.465 48.554 48.554 0 0 0 19.93-45.492zM39.198-47.467h16.131v4.033H49.28a2.016 2.016 0 1 0 0 4.032h6.049v4.033H49.28a2.016 2.016 0 1 0 0 4.032h6.049v4.033H49.28a2.016 2.016 0 1 0 0 4.032h6.049v4.033H49.28a2.016 2.016 0 1 0 0 4.032h6.049v4.033H39.198v-36.293zM17.017-30.501v19.329h-2.016v-21.346l2.016 2.017zm6.049 19.329H21.05v-19.329l2.016-2.016v21.345zm-8.531 4.033h8.997a6.05 6.05 0 1 1-8.997 0zm4.499-37.836l3.595 7.186-3.595 3.601-3.595-3.601 3.595-7.186zM9.803-7.139C7.564-2.041 9.882 3.907 14.98 6.146c5.098 2.239 11.046-.079 13.285-5.177a10.079 10.079 0 0 0 0-8.108h16.982V.927H38.27c-.876 0-1.652.566-1.92 1.399a16.55 16.55 0 0 1-1.22 2.916c-.43.785-.29 1.76.343 2.393l4.944 4.946-5.696 5.698-4.946-4.946a2.016 2.016 0 0 0-2.395-.343c-.93.5-1.907.908-2.916 1.22a2.015 2.015 0 0 0-1.397 1.92v6.977h-8.066V16.13c0-.875-.564-1.651-1.397-1.92a16.401 16.401 0 0 1-2.916-1.22 2.015 2.015 0 0 0-2.395.343l-4.946 4.946-5.686-5.698 4.944-4.946a2.015 2.015 0 0 0 .343-2.393c-.5-.932-.908-1.908-1.221-2.916A2.016 2.016 0 0 0-.203.927H-7.18v-8.066H9.803zm-23.032-38.312c0-1.114.903-2.016 2.016-2.016h4.033c1.114 0 2.016.903 2.016 2.016v10.082h-8.066v-10.082zm2.017 14.115h4.033v20.164h-4.033v-20.164zm55.993 66.374a18.158 18.158 0 0 0-7.6 14.746v17.684H.886V55.369a6.049 6.049 0 0 0-6.049-6.049h-14.115a2.016 2.016 0 0 1-2.016-2.016V31.172a2.016 2.016 0 0 0-2.016-2.016h-9.517L-25.606.253c.182-.725.276-1.47.28-2.218.04-1.732.184-3.459.429-5.174h13.685V2.943c0 1.114.903 2.016 2.016 2.016h7.568c.115.29.23.571.351.843l-5.352 5.354a2.016 2.016 0 0 0 0 2.851l8.55 8.55a2.016 2.016 0 0 0 2.851 0l5.352-5.352c.274.119.555.236.845.351v7.568c0 1.114.903 2.016 2.016 2.016h12.098a2.016 2.016 0 0 0 2.016-2.016v-7.568c.29-.115.571-.232.845-.351l5.352 5.352c.8.756 2.051.756 2.851 0l8.55-8.55a2.016 2.016 0 0 0 0-2.851l-5.352-5.354c.121-.272.236-.552.351-.843h7.568a2.016 2.016 0 0 0 2.016-2.016V-7.139h13.711c.02.145.046.278.063.425a44.566 44.566 0 0 1-18.273 41.752z"/><path d="M33.148 34.537a2.016 2.016 0 0 1-.744-3.89 39.01 39.01 0 0 0 1.912-.823 2.017 2.017 0 0 1 1.736 3.64l-.039.018c-.695.323-1.402.626-2.121.911a1.974 1.974 0 0 1-.744.144zM42.553 29.156a2.017 2.017 0 0 1-1.24-3.607A36.198 36.198 0 0 0 55.28-1.195a2.02 2.02 0 0 1 4.033.201 40.25 40.25 0 0 1-15.526 29.716 2.005 2.005 0 0 1-1.234.434z"/></g></svg>