<svg version="1.1" xmlns="http://www.w3.org/2000/svg" x="0" y="0" viewBox="-60 -52.5 150 125" xml:space="preserve"><path d="M81.268 5.005h-9.784L60.391-17.514a11.984 11.984 0 0 0 1.179-5.199c0-5.14-3.232-9.54-7.771-11.275v-3.485h.212c.906 0 1.641-.735 1.641-1.641v-10.745c0-.906-.735-1.641-1.641-1.641h-9.018c-.906 0-1.641.735-1.641 1.641v10.745c0 .906.735 1.641 1.641 1.641h.212v3.485c-4.539 1.735-7.771 6.135-7.771 11.275 0 1.861.424 3.624 1.179 5.199L27.52 5.006h-9.784a1.641 1.641 0 0 0 0 3.282h8.168l-3.067 6.226a8.863 8.863 0 0 0-.423 6.816 8.872 8.872 0 0 0 3.112 4.264l-2.227 4.555a1.641 1.641 0 0 0 2.948 1.442L37.693 8.287h6.694v.549a5.12 5.12 0 0 0 5.115 5.114 5.12 5.12 0 0 0 5.115-5.114v-.549h6.695l11.446 23.302a1.64 1.64 0 1 0 2.948-1.442l-2.227-4.555a8.848 8.848 0 0 0 3.112-4.264 8.865 8.865 0 0 0-.425-6.82l-3.065-6.222h8.168a1.641 1.641 0 1 0-.001-3.281zM46.634-48.218h5.736v7.463h-5.736v-7.463zm3.883 10.744v2.737a12.193 12.193 0 0 0-2.03 0v-2.737h2.03zm-1.015 5.977c4.845 0 8.787 3.94 8.787 8.783s-3.942 8.783-8.787 8.783-8.787-3.941-8.787-8.783c0-4.843 3.942-8.783 8.787-8.783zm-22.494 54.06a5.628 5.628 0 0 1-1.491-2.299 5.603 5.603 0 0 1 .265-4.304l14.964-30.379a12.148 12.148 0 0 0 3.257 2.444L27.008 22.563zM51.336 8.836a1.834 1.834 0 0 1-3.668 0v-4.38a1.835 1.835 0 0 1 3.668 0v4.38zm3.281-3.831v-.548a5.12 5.12 0 0 0-5.115-5.114 5.12 5.12 0 0 0-5.115 5.114v.549h-5.08l7.817-15.889a12.11 12.11 0 0 0 4.758 0l7.816 15.889h-5.081zm18.603 10.95a5.606 5.606 0 0 1 .267 4.308 5.609 5.609 0 0 1-1.49 2.299L55.001-11.975a12.127 12.127 0 0 0 3.257-2.444L73.22 15.955z" fill="#f5235f"/><path d="M47.063-21.073h.799v.798a1.641 1.641 0 0 0 3.282 0v-.798h.799a1.641 1.641 0 0 0 0-3.282h-.799v-.798a1.641 1.641 0 0 0-3.282 0v.798h-.799a1.641 1.641 0 0 0 0 3.282z" fill="#f5235f"/><path d="M57.735 21.581v11.434H-48.099v-55.322a7.216 7.216 0 0 1 7.216-7.216h82.4a15.539 15.539 0 0 1 3.567-4.811h-85.967c-6.639.008-12.019 5.388-12.027 12.027v64.943c.008 6.639 5.388 12.019 12.027 12.027h32.89l-3.435 12.027h-7.807v4.81h48.106v-4.811h-7.808l-3.435-12.027h32.89c6.639-.008 12.019-5.388 12.027-12.027v-26.32c.001.002.001.002-4.81 5.266zM-6.424 66.689l3.435-12.027h15.615l3.435 12.027H-6.424zm64.159-24.053a7.216 7.216 0 0 1-7.216 7.216h-91.401a7.216 7.216 0 0 1-7.216-7.216v-4.811H57.735v4.811z" fill="#f5235f"/><path fill="#f5235f" d="M-15.778 15.019l7.829-27.36 3.758 1.074-7.83 27.361zM-20.452-6.433l-2.503-3.004L-34.688.34a1.955 1.955 0 0 0 0 3.003l11.733 9.777 2.503-3.004-9.93-8.276 9.93-8.273zM14.996.59a2.02 2.02 0 0 0-.249-.249L3.013-9.436.51-6.433l9.93 8.276-9.93 8.276 2.503 3.004 11.733-9.777c.83-.693.941-1.926.25-2.756z"/></svg>