<svg version="1.1" xmlns="http://www.w3.org/2000/svg" x="0" y="0" viewBox="-60 -52.5 150 125" xml:space="preserve"><path d="M79.721 8.961a75.151 75.151 0 0 0-26.832-27.053c-10.845-6.393-23.185-9.926-35.815-10.275v-14.186a2.074 2.074 0 1 0-4.148 0v14.186c-12.629.349-24.97 3.883-35.815 10.275A75.151 75.151 0 0 0-49.721 8.961a2.074 2.074 0 0 0 0 2.078 75.151 75.151 0 0 0 26.832 27.053c10.845 6.393 23.186 9.926 35.815 10.275v14.186a2.074 2.074 0 1 0 4.148 0V48.367c12.629-.349 24.97-3.883 35.815-10.275a75.144 75.144 0 0 0 26.832-27.053 2.074 2.074 0 0 0 0-2.078zm-62.647 3.113h17.137c-.955 9.3-8.485 16.83-17.137 17.137V12.074zm-4.148 17.138c-9.446-.65-15.95-7.837-17.138-17.138h17.137v17.138zM-4.212 7.926c1.36-8.969 7.52-16.328 17.137-17.137V7.926H-4.212zm17.138-19.26c-10.168.981-18.279 9.092-19.26 19.26l-13.803.101C-19.103-9.008-4.109-24.31 12.926-25.344v14.01zm-19.26 23.408c.981 10.167 9.093 18.278 19.26 19.26l-.034 13.828c-20.056-.367-31.994-16.166-33.029-33.2l13.803.112zm23.408 19.26c10.167-.981 18.278-9.093 19.26-19.26h13.51C48.81 29.109 34.033 44.47 16.999 45.505l.075-14.171zM36.333 7.926a21.342 21.342 0 0 0-3.283-9.482c-.619-.964-2.874-.685-1.438 2.24 1.15 2.344 2.292 4.669 2.602 7.242h-17.14v-17.14c2.427-.236 5.957 1.625 10.108 4.03.991.574 2.908-.801-.626-2.866a21.342 21.342 0 0 0-9.482-3.283v-14.182C34.109-24.481 48.566-9.35 49.6 7.684l-13.267.242zm-82.739 2.325c11.552-18.995 26.027-27.273 41.586-32.6-10.782 7.7-17.528 18.683-18.155 30.275h-14.579a2.074 2.074 0 1 0 0 4.148h14.579c.626 11.592 6.603 23.504 18.154 30.264-16.685-4.363-32.897-17.646-41.585-32.087zM35.481 41.74c5.647-1.968 16.867-18.073 17.493-29.665h14.579a2.074 2.074 0 1 0 0-4.148H52.975c-.626-11.592-9.432-23.635-18.178-30.189 17.627 4.792 33.24 18.075 41.927 32.515-8.687 14.439-27.552 29.946-41.243 31.487zM-45.375-30.098c1.664.179 1.793-1.172 1.793-3.033V-48.02l16.942.128s1.797-.128 1.54-2.054c-.118-.887-.706-1.625-1.601-1.625h-17.112a2.757 2.757 0 0 0-2.757 2.757v17.332c.001.695.506 1.31 1.195 1.384zM76.065-31.48v-17.332a2.757 2.757 0 0 0-2.757-2.757H56.196c-.895 0-1.483.738-1.601 1.625-.257 1.925 1.54 2.054 1.54 2.054l16.942-.128v14.889c0 1.861.129 3.211 1.793 3.033.69-.076 1.195-.691 1.195-1.384zM-46.398 51.139v17.332a2.757 2.757 0 0 0 2.757 2.757h17.112c.895 0 1.483-.738 1.601-1.625.257-1.925-1.54-2.054-1.54-2.054l-16.942.128V52.79c0-1.861-.129-3.211-1.793-3.033-.69.074-1.195.689-1.195 1.382zM75.042 49.757c-1.664-.179-1.793 1.172-1.793 3.033v14.889l-16.943-.129s-1.797.128-1.54 2.054c.118.887.706 1.625 1.601 1.625h17.112a2.757 2.757 0 0 0 2.757-2.757V51.139c0-.693-.505-1.308-1.194-1.382z" fill="#f5235f"/></svg>