<svg xmlns="http://www.w3.org/2000/svg" viewBox="-60 -52.5 150 125"><path d="M10.488 25.71h-49.28v5.705H16.93a32.698 32.698 0 0 1-6.443-5.705zM79.55 51.974L64.96 37.383a4.695 4.695 0 0 1-.067-6.573 2.263 2.263 0 0 0-.086.084l-3.32 3.32a4.697 4.697 0 0 0 0 6.642L76.077 55.45a4.695 4.695 0 0 0 6.642 0l3.32-3.32.067-.07a4.697 4.697 0 0 1-6.556-.085z" fill="#edcad6"/><path d="M48.902-9.338a19.5 19.5 0 0 0-13.878-5.75 19.49 19.49 0 0 0-13.877 5.749c-7.652 7.652-7.652 20.103 0 27.755a1.587 1.587 0 1 0 2.244-2.244c-6.415-6.415-6.415-16.852 0-23.266 3.107-3.107 7.24-4.82 11.633-4.82a16.34 16.34 0 0 1 11.634 4.82c6.415 6.415 6.415 16.852 0 23.266a1.587 1.587 0 1 0 2.244 2.244c7.653-7.652 7.653-20.103 0-27.755zm-5.974 5.754L37.18.32a4.647 4.647 0 1 0 2.023 2.976L44.95-.6a1.8 1.8 0 0 0-2.023-2.975zM70.814 13.25a1.58 1.58 0 0 0-1.587 1.587v9.704a1.587 1.587 0 1 0 3.174 0v-9.704a1.58 1.58 0 0 0-1.587-1.587zm-118.07 21.976a1.58 1.58 0 0 0 1.587-1.587v-67.29a1.59 1.59 0 0 1 1.587-1.587H67.64a1.59 1.59 0 0 1 1.587 1.587v29.08a1.587 1.587 0 1 0 3.174 0v-29.08a4.766 4.766 0 0 0-4.761-4.761H-44.082a4.766 4.766 0 0 0-4.761 4.761v67.288a1.58 1.58 0 0 0 1.587 1.587zM62.35-20.054a1.58 1.58 0 0 0 1.587-1.587v-7.247a1.58 1.58 0 0 0-1.587-1.587H52.088a1.587 1.587 0 1 0 0 3.174h8.676v5.66a1.58 1.58 0 0 0 1.587 1.587zM19.82-28.9a1.58 1.58 0 0 0-1.587-1.587h-57.026a1.58 1.58 0 0 0-1.587 1.587v60.305a1.58 1.58 0 0 0 1.587 1.587h47.24a1.587 1.587 0 1 0 0-3.174h-45.652v-57.13h55.438a1.58 1.58 0 0 0 1.588-1.587zm26.396 66.653a1.587 1.587 0 1 0 0 3.174h8.4a1.587 1.587 0 1 0 0-3.174h-8.4zm16.822 10.37H-52.23a3.6 3.6 0 0 1-3.597-3.597 3.6 3.6 0 0 1 3.597-3.597h72.657a1.587 1.587 0 1 0 0-3.174H-52.23A6.779 6.779 0 0 0-59 44.536a6.778 6.778 0 0 0 6.771 6.771H63.038a1.587 1.587 0 1 0 0-3.174zm24.124-3.77L72.57 29.77a6.291 6.291 0 0 0-8.887.001l-3.32 3.32a6.291 6.291 0 0 0 .001 8.886l14.592 14.6a6.243 6.243 0 0 0 4.444 1.84 6.245 6.245 0 0 0 4.444-1.841l3.32-3.32a6.292 6.292 0 0 0-.002-8.886zm-2.244 6.642l-3.32 3.32a3.089 3.089 0 0 1-4.398.001l-14.6-14.6a3.113 3.113 0 0 1 0-4.398l3.32-3.32a3.09 3.09 0 0 1 4.399-.001l14.59 14.6a3.113 3.113 0 0 1-.001 4.398zm-49.894-72.28C20.85-21.275 9.316-9.743 9.316 4.432S20.848 30.14 35.024 30.14 60.732 18.607 60.732 4.432 49.2-21.275 35.024-21.275zm0 48.24C22.6 26.966 12.5 16.857 12.5 4.432S22.598-18.1 35.024-18.1 57.558-7.993 57.558 4.432 47.45 26.966 35.024 26.966zm0-56.607C16.235-29.642.95-14.357.95 4.432s15.286 34.074 34.074 34.074c6.94 0 13.564-2.052 19.24-5.948l1.172 1.172a1.587 1.587 0 0 0 2.245-2.244l-2.123-2.124a1.587 1.587 0 0 0-2.071-.15c-5.364 4.004-11.748 6.12-18.462 6.12-17.038 0-30.9-13.862-30.9-30.9s13.86-30.9 30.9-30.9 30.9 13.86 30.9 30.9a30.64 30.64 0 0 1-6.119 18.462 1.586 1.586 0 0 0 .149 2.071l2.123 2.124a1.588 1.588 0 0 0 2.245-2.244l-1.172-1.172c3.896-5.676 5.948-12.3 5.948-19.24-.001-18.8-15.286-34.075-34.075-34.075zm-65.342 14.555a1.58 1.58 0 0 0-1.587 1.587v28.335a1.58 1.58 0 0 0 1.587 1.587h25.785a1.587 1.587 0 1 0 0-3.174h-.047V1.264a1.587 1.587 0 1 0-3.174 0V13.25h-3V-2.4a1.587 1.587 0 1 0-3.174 0v15.648h-3V3.23a1.587 1.587 0 1 0-3.174 0v10.02h-3V8.864a1.587 1.587 0 1 0-3.174 0v4.384h-2.455V-13.5a1.59 1.59 0 0 0-1.587-1.587z" fill="#f5235f"/></svg>