<svg version="1.1" xmlns="http://www.w3.org/2000/svg" x="0" y="0" viewBox="-60 -52.5 150 125" xml:space="preserve"><path d="M-.515-22.732h-3.627c0-4.369 1.511-8.642 4.253-12.032l2.819 2.281a15.35 15.35 0 0 0-3.445 9.751zM34.142-22.732h-3.627c0-3.592-1.192-6.964-3.446-9.751l2.819-2.281a19.19 19.19 0 0 1 4.254 12.032zM5.373 23.589h3.851v3.627H5.373zM20.776 23.589h3.851v3.627h-3.851zM-38.91 58.246h11.552v3.627H-38.91zM5.373 58.246h11.552v3.627H5.373zM49.657 58.246h11.552v3.627H49.657z" fill="#f5235f"/><g fill="#f5235f"><path d="M13.075-11.067h3.851v3.627h-3.851zM13.075-3.366h3.851V.261h-3.851z"/><path d="M61.097 48.619v-7.701H16.813v-4.075h15.403v-22.88H16.813V5.978c15.021-.939 26.955-13.456 26.955-28.71C43.769-38.595 30.863-51.5 15-51.5s-28.768 12.905-28.768 28.768c0 15.254 11.934 27.771 26.955 28.71v7.985H-2.216v22.88h15.403v4.075h-44.283v7.701H-46.5V71.5h34.433V48.619H-27.47v-4.075h40.657v4.075H-2.216V71.5h34.433V48.619H16.813v-4.075H57.47v4.075H42.067V71.5H76.5V48.619H61.097zM15-20.694a5.894 5.894 0 0 1-5.888-5.888v-7.701A5.894 5.894 0 0 1 15-40.171a5.894 5.894 0 0 1 5.888 5.888v7.702A5.895 5.895 0 0 1 15-20.694zm-2.037 7.477v-4.073a9.502 9.502 0 0 0 4.074 0v2.259l.009 1.796 1.796.017c.025 0 2.554.041 4.988 1.507 3.15 1.898 4.751 5.304 4.759 10.122C24.668.941 20.003 2.41 15 2.41S5.332.941 1.412-1.587C1.419-6.406 3.02-9.812 6.17-11.71c2.434-1.466 4.962-1.507 4.979-1.507h1.814zm-23.105-9.515c0-13.863 11.279-25.142 25.142-25.142s25.142 11.279 25.142 25.142c0 7.286-3.117 13.857-8.085 18.453-.732-5.998-3.848-9.077-6.516-10.633-1.798-1.049-3.597-1.528-4.876-1.747v-2.283a9.506 9.506 0 0 0 3.851-7.64v-7.701c0-5.246-4.268-9.515-9.515-9.515-5.247 0-9.515 4.268-9.515 9.515v7.702a9.506 9.506 0 0 0 3.851 7.64v2.283c-1.279.219-3.079.699-4.876 1.747-2.668 1.556-5.784 4.635-6.516 10.633-4.97-4.596-8.087-11.168-8.087-18.454zM1.41 17.589h27.18v15.627H1.41V17.589zm-17.104 50.284h-27.179V52.246h27.179v15.627zm44.284 0H1.41V52.246h27.18v15.627zm44.283 0H45.694V52.246h27.179v15.627z"/><path d="M13.075 23.589h3.851v3.627h-3.851zM-23.507 58.246h3.851v3.627h-3.851zM20.776 58.246h3.851v3.627h-3.851zM65.06 58.246h3.851v3.627H65.06z"/></g></svg>