<svg id="Layer_1" data-name="Layer 1" xmlns="http://www.w3.org/2000/svg" xmlns:xlink="http://www.w3.org/1999/xlink" viewBox="0 0 386.17 275.02"><defs><style>.cls-1{fill:url(#linear-gradient);}.cls-2{fill:url(#linear-gradient-2);}.cls-3{fill:url(#linear-gradient-3);}.cls-4{fill:url(#linear-gradient-4);}.cls-5{fill:url(#linear-gradient-5);}.cls-6{fill:url(#linear-gradient-6);}.cls-7{fill:url(#linear-gradient-7);}.cls-8{fill:url(#linear-gradient-8);}</style><linearGradient id="linear-gradient" x1="32.27" y1="106.86" x2="351.7" y2="106.86" gradientUnits="userSpaceOnUse"><stop offset="0" stop-color="#fe0068"/><stop offset="1" stop-color="#9d04c7"/></linearGradient><linearGradient id="linear-gradient-2" x1="0" y1="251.14" x2="386.17" y2="251.14" xlink:href="#linear-gradient"/><linearGradient id="linear-gradient-3" x1="80.64" y1="112.99" x2="305.44" y2="112.99" xlink:href="#linear-gradient"/><linearGradient id="linear-gradient-4" x1="54.14" y1="37.28" x2="268.29" y2="37.28" xlink:href="#linear-gradient"/><linearGradient id="linear-gradient-5" x1="296.91" y1="37.34" x2="311.76" y2="37.34" xlink:href="#linear-gradient"/><linearGradient id="linear-gradient-6" x1="277.18" y1="37.34" x2="291.73" y2="37.34" xlink:href="#linear-gradient"/><linearGradient id="linear-gradient-7" x1="316.84" y1="37.33" x2="331.49" y2="37.33" xlink:href="#linear-gradient"/><linearGradient id="linear-gradient-8" x1="179.94" y1="111.75" x2="217.3" y2="111.75" xlink:href="#linear-gradient"/></defs><path class="cls-1" d="M351.7,213.73H32.5c-.09-1.37-.23-2.61-.23-3.85q0-92.9.06-185.79a54.57,54.57,0,0,1,.31-7.68A18.88,18.88,0,0,1,51.19,0c2,0,4,0,5.94,0H331.05C343.71,0,351.7,7.94,351.7,20.5V213.73ZM192.8,181.78H331.11c9,0,10.51-1.53,10.51-10.52V29.11c0-1.49,0-3-.06-4.45a7.65,7.65,0,0,0-4-6.87,15,15,0,0,0-6.74-1.64Q192.67,16,54.5,16.08a20.85,20.85,0,0,0-2.37.07,8.85,8.85,0,0,0-8.05,7.49,36.24,36.24,0,0,0-.34,5.9q0,71.69,0,143.37c0,6.44,2.36,8.86,8.68,8.86Z"/><path class="cls-2" d="M.43,227.25H151.66c0,2.67,0,5.11,0,7.56.12,6.73,4.3,10.88,11,10.88q30.42,0,60.85,0c6.74,0,10.86-4.18,11-11,0-2.44,0-4.89,0-7.48H385.77c2.73,20.09-8.68,38.79-26.83,45.08a48.08,48.08,0,0,1-15.37,2.57q-117.24.24-234.48.12H42.91C23.09,275,8,264.12,1.75,245.32A43.58,43.58,0,0,1,.43,227.25Z"/><path class="cls-3" d="M304.84,108.35c-3.94,1-7.95.42-11.91,0-12.35-1.22-23.81-5.57-35.25-10-5.24-2-10.58-3.82-16.68-6,5.83,14.82,5.34,28.84-1.67,42.55l.56.47c5-1.59,10.13-3,15.11-4.81,14.53-5.17,29-10.48,43.53-15.66a19.86,19.86,0,0,1,4.19-.53l.54,1a68.67,68.67,0,0,1-3.43,6c-15.78,22.25-36.58,37.53-63,44.79-9.5,2.61-19.3,3.17-29.12,3-17.39-.27-34.51-2.38-51-8.17a170.82,170.82,0,0,1-74-50.67c-.7-.81-1.25-1.72-2-2.81a28.35,28.35,0,0,1,2.3-2.78,174.27,174.27,0,0,1,70.85-41.25c24-7.25,48.44-8.41,73.11-4.83C247,61.62,264,71.13,279.11,84.38c7.66,6.7,15.62,13.07,23.4,19.64a29.41,29.41,0,0,1,2.93,3.35ZM162.7,79.83C134.48,83.29,109,92.89,84.8,107.68c23.4,17.78,48.58,30.1,77.26,35.87C146.41,122.08,146.67,101.1,162.7,79.83Zm66,31.8a30.34,30.34,0,0,0-30-30.11c-16.49,0-30.33,13.83-30.24,30.27a30.13,30.13,0,0,0,60.26-.16Z"/><path class="cls-4" d="M54.14,42.26V32.6c1.23-.11,2.36-.3,3.5-.3,25,0,50,.13,75,.13q63.48,0,127-.14a33.63,33.63,0,0,1,4.14.14,5,5,0,0,1,4.5,5,4.82,4.82,0,0,1-4.71,4.79c-.79.07-1.58,0-2.37,0l-148.34,0-54.58,0Z"/><path class="cls-5" d="M304.26,30a7.37,7.37,0,0,1,7.49,7.53,7.46,7.46,0,0,1-7.26,7.17,7.35,7.35,0,1,1-.23-14.7Z"/><path class="cls-6" d="M284.31,44.69a7,7,0,0,1-7.13-7.42A7,7,0,0,1,284.42,30a7.09,7.09,0,0,1,7.31,7.55A7.14,7.14,0,0,1,284.31,44.69Z"/><path class="cls-7" d="M324.21,30a7.35,7.35,0,0,1,.06,14.7,7.13,7.13,0,0,1-7.43-7.15A7.16,7.16,0,0,1,324.21,30Z"/><path class="cls-8" d="M198.71,93.11a18.64,18.64,0,1,1-18.77,18.46A18.35,18.35,0,0,1,198.71,93.11Z"/></svg>