<?xml version="1.0" encoding="utf-8"?>
<!-- Generator: Adobe Illustrator 24.2.3, SVG Export Plug-In . SVG Version: 6.00 Build 0)  -->
<svg version="1.1" id="Layer_1" xmlns="http://www.w3.org/2000/svg" xmlns:xlink="http://www.w3.org/1999/xlink" x="0px" y="0px"
	 viewBox="0 0 386.2 275" style="enable-background:new 0 0 386.2 275;" xml:space="preserve">
<style type="text/css">
	.st0{fill:#FFFFFF;}
</style>
<path class="st0" d="M351.7,213.7H32.5c-0.1-1.4-0.2-2.6-0.2-3.9c0-61.9,0-123.9,0.1-185.8c-0.1-2.6,0-5.1,0.3-7.7
	C33.9,7.1,41.8,0.1,51.2,0c2,0,4,0,5.9,0H331c12.7,0,20.7,7.9,20.7,20.5V213.7z M192.8,181.8h138.3c9,0,10.5-1.5,10.5-10.5V29.1
	c0-1.5,0-3-0.1-4.5c0.1-2.9-1.5-5.5-4-6.9c-2.1-1.1-4.4-1.6-6.7-1.6c-92.1-0.1-184.2-0.1-276.3-0.1c-0.8,0-1.6,0-2.4,0.1
	c-4.1,0.3-7.4,3.4-8,7.5c-0.3,2-0.4,3.9-0.3,5.9c0,47.8,0,95.6,0,143.4c0,6.4,2.4,8.9,8.7,8.9L192.8,181.8z"/>
<path class="st0" d="M0.4,227.3h151.2c0,2.7,0,5.1,0,7.6c0.1,6.7,4.3,10.9,11,10.9c20.3,0,40.6,0,60.9,0c6.7,0,10.9-4.2,11-11
	c0-2.4,0-4.9,0-7.5h151.3c2.7,20.1-8.7,38.8-26.8,45.1c-4.9,1.7-10.1,2.6-15.4,2.6c-78.2,0.2-156.3,0.2-234.5,0.1H42.9
	C23.1,275,8,264.1,1.8,245.3C0,239.5-0.4,233.3,0.4,227.3z"/>
<path class="st0" d="M304.8,108.3c-3.9,1-8,0.4-11.9,0c-12.4-1.2-23.8-5.6-35.3-10c-5.2-2-10.6-3.8-16.7-6
	c5.8,14.8,5.3,28.8-1.7,42.5l0.6,0.5c5-1.6,10.1-3,15.1-4.8c14.5-5.2,29-10.5,43.5-15.7c1.4-0.3,2.8-0.5,4.2-0.5l0.5,1
	c-1,2.1-2.2,4.1-3.4,6c-15.8,22.3-36.6,37.5-63,44.8c-9.5,2.6-19.3,3.2-29.1,3c-17.4-0.3-34.5-2.4-51-8.2
	c-28.7-10-54.3-27.5-74-50.7c-0.7-0.8-1.3-1.7-2-2.8c0.7-1,1.5-1.9,2.3-2.8c20-19.2,44.3-33.3,70.8-41.3c24-7.3,48.4-8.4,73.1-4.8
	c20,3,37,12.5,52.1,25.7c7.7,6.7,15.6,13.1,23.4,19.6c1.1,1,2,2.2,2.9,3.3L304.8,108.3z M162.7,79.8c-28.2,3.5-53.7,13.1-77.9,27.8
	c23.4,17.8,48.6,30.1,77.3,35.9C146.4,122.1,146.7,101.1,162.7,79.8z M228.7,111.6c-0.1-16.5-13.5-29.9-30-30.1
	c-16.5,0-30.3,13.8-30.2,30.3c0,16.6,13.6,30.1,30.2,30.1C215.3,141.8,228.8,128.3,228.7,111.6L228.7,111.6z"/>
<path class="st0" d="M54.1,42.3v-9.7c1.2-0.1,2.4-0.3,3.5-0.3c25,0,50,0.1,75,0.1c42.3,0,84.7,0,127-0.1c1.4,0,2.8,0,4.1,0.1
	c2.6,0.3,4.5,2.4,4.5,5c0,2.6-2.1,4.7-4.7,4.8c-0.8,0.1-1.6,0-2.4,0H112.9H58.3L54.1,42.3z"/>
<path class="st0" d="M304.3,30c4.1-0.1,7.4,3.2,7.5,7.2c0,0.1,0,0.2,0,0.3c-0.2,3.9-3.3,7.1-7.3,7.2c-4.1,0.1-7.4-3.2-7.5-7.2
	C297,33.4,300.2,30.1,304.3,30L304.3,30z"/>
<path class="st0" d="M284.3,44.7c-3.9,0.1-7.1-3-7.1-6.9c0-0.2,0-0.4,0-0.6c-0.2-3.9,2.9-7.1,6.7-7.3c0.2,0,0.3,0,0.5,0
	c3.9-0.1,7.2,2.9,7.3,6.9c0,0.2,0,0.5,0,0.7c0,3.9-3.2,7.1-7.1,7.1C284.5,44.7,284.4,44.7,284.3,44.7z"/>
<path class="st0" d="M324.2,30c4.1,0,7.4,3.3,7.4,7.3s-3.3,7.4-7.3,7.4c-3.9,0.2-7.3-2.9-7.4-6.8c0-0.1,0-0.2,0-0.3
	c-0.2-3.9,2.8-7.3,6.8-7.5C323.8,30,324,30,324.2,30z"/>
<path class="st0" d="M198.7,93.1c10.3,0.1,18.6,8.5,18.5,18.8s-8.5,18.6-18.8,18.5c-10.3-0.1-18.6-8.5-18.5-18.8c0,0,0,0,0,0
	c-0.1-10.1,8.1-18.4,18.2-18.5C198.4,93.1,198.5,93.1,198.7,93.1z"/>
</svg>
